<svg width="312" height="258" viewBox="0 0 312 258" fill="none" xmlns="http://www.w3.org/2000/svg">
<path d="M0 4C0 1.79086 1.79086 0 4 0H308C310.209 0 312 1.79086 312 4V254C312 256.209 310.209 258 308 258H3.99999C1.79085 258 0 256.209 0 254V4Z" fill="#E6E9F2"/>
<path opacity="0.6" d="M28.5312 132.633L24.7656 143H23.2266L27.5625 131.625H28.5547L28.5312 132.633ZM31.6875 143L27.9141 132.633L27.8906 131.625H28.8828L33.2344 143H31.6875ZM31.4922 138.789V140.023H25.1016V138.789H31.4922ZM40.3672 141.359V131H41.8203V143H40.4922L40.3672 141.359ZM34.6797 138.867V138.703C34.6797 138.057 34.7578 137.471 34.9141 136.945C35.0755 136.414 35.3021 135.958 35.5938 135.578C35.8906 135.198 36.2422 134.906 36.6484 134.703C37.0599 134.495 37.5182 134.391 38.0234 134.391C38.5547 134.391 39.0182 134.484 39.4141 134.672C39.8151 134.854 40.1536 135.122 40.4297 135.477C40.7109 135.826 40.9323 136.247 41.0938 136.742C41.2552 137.237 41.3672 137.797 41.4297 138.422V139.141C41.3724 139.76 41.2604 140.318 41.0938 140.812C40.9323 141.307 40.7109 141.729 40.4297 142.078C40.1536 142.427 39.8151 142.695 39.4141 142.883C39.013 143.065 38.5443 143.156 38.0078 143.156C37.513 143.156 37.0599 143.049 36.6484 142.836C36.2422 142.622 35.8906 142.323 35.5938 141.938C35.3021 141.552 35.0755 141.099 34.9141 140.578C34.7578 140.052 34.6797 139.482 34.6797 138.867ZM36.1328 138.703V138.867C36.1328 139.289 36.1745 139.685 36.2578 140.055C36.3464 140.424 36.4818 140.75 36.6641 141.031C36.8464 141.312 37.0781 141.534 37.3594 141.695C37.6406 141.852 37.9766 141.93 38.3672 141.93C38.8464 141.93 39.2396 141.828 39.5469 141.625C39.8594 141.422 40.1094 141.154 40.2969 140.82C40.4844 140.487 40.6302 140.125 40.7344 139.734V137.852C40.6719 137.565 40.5807 137.289 40.4609 137.023C40.3464 136.753 40.1953 136.513 40.0078 136.305C39.8255 136.091 39.599 135.922 39.3281 135.797C39.0625 135.672 38.7474 135.609 38.3828 135.609C37.987 135.609 37.6458 135.693 37.3594 135.859C37.0781 136.021 36.8464 136.245 36.6641 136.531C36.4818 136.812 36.3464 137.141 36.2578 137.516C36.1745 137.885 36.1328 138.281 36.1328 138.703ZM46.1406 134.547V143H44.6875V134.547H46.1406ZM44.5781 132.305C44.5781 132.07 44.6484 131.872 44.7891 131.711C44.9349 131.549 45.1484 131.469 45.4297 131.469C45.7057 131.469 45.9167 131.549 46.0625 131.711C46.2135 131.872 46.2891 132.07 46.2891 132.305C46.2891 132.529 46.2135 132.721 46.0625 132.883C45.9167 133.039 45.7057 133.117 45.4297 133.117C45.1484 133.117 44.9349 133.039 44.7891 132.883C44.6484 132.721 44.5781 132.529 44.5781 132.305ZM52.3438 141.969C52.6875 141.969 53.0052 141.898 53.2969 141.758C53.5885 141.617 53.8281 141.424 54.0156 141.18C54.2031 140.93 54.3099 140.646 54.3359 140.328H55.7109C55.6849 140.828 55.5156 141.294 55.2031 141.727C54.8958 142.154 54.4922 142.5 53.9922 142.766C53.4922 143.026 52.9427 143.156 52.3438 143.156C51.7083 143.156 51.1536 143.044 50.6797 142.82C50.2109 142.596 49.8203 142.289 49.5078 141.898C49.2005 141.508 48.9688 141.06 48.8125 140.555C48.6615 140.044 48.5859 139.505 48.5859 138.938V138.609C48.5859 138.042 48.6615 137.505 48.8125 137C48.9688 136.49 49.2005 136.039 49.5078 135.648C49.8203 135.258 50.2109 134.951 50.6797 134.727C51.1536 134.503 51.7083 134.391 52.3438 134.391C53.0052 134.391 53.5833 134.526 54.0781 134.797C54.5729 135.062 54.9609 135.427 55.2422 135.891C55.5286 136.349 55.6849 136.87 55.7109 137.453H54.3359C54.3099 137.104 54.2109 136.789 54.0391 136.508C53.8724 136.227 53.6432 136.003 53.3516 135.836C53.0651 135.664 52.7292 135.578 52.3438 135.578C51.901 135.578 51.5286 135.667 51.2266 135.844C50.9297 136.016 50.6927 136.25 50.5156 136.547C50.3438 136.839 50.2188 137.164 50.1406 137.523C50.0677 137.878 50.0312 138.24 50.0312 138.609V138.938C50.0312 139.307 50.0677 139.672 50.1406 140.031C50.2135 140.391 50.3359 140.716 50.5078 141.008C50.6849 141.299 50.9219 141.534 51.2188 141.711C51.5208 141.883 51.8958 141.969 52.3438 141.969ZM59.4062 134.547V143H57.9531V134.547H59.4062ZM57.8438 132.305C57.8438 132.07 57.9141 131.872 58.0547 131.711C58.2005 131.549 58.4141 131.469 58.6953 131.469C58.9714 131.469 59.1823 131.549 59.3281 131.711C59.4792 131.872 59.5547 132.07 59.5547 132.305C59.5547 132.529 59.4792 132.721 59.3281 132.883C59.1823 133.039 58.9714 133.117 58.6953 133.117C58.4141 133.117 58.2005 133.039 58.0547 132.883C57.9141 132.721 57.8438 132.529 57.8438 132.305ZM61.8438 138.867V138.688C61.8438 138.078 61.9323 137.513 62.1094 136.992C62.2865 136.466 62.5417 136.01 62.875 135.625C63.2083 135.234 63.612 134.932 64.0859 134.719C64.5599 134.5 65.0911 134.391 65.6797 134.391C66.2734 134.391 66.8073 134.5 67.2812 134.719C67.7604 134.932 68.1667 135.234 68.5 135.625C68.8385 136.01 69.0964 136.466 69.2734 136.992C69.4505 137.513 69.5391 138.078 69.5391 138.688V138.867C69.5391 139.477 69.4505 140.042 69.2734 140.562C69.0964 141.083 68.8385 141.539 68.5 141.93C68.1667 142.315 67.763 142.617 67.2891 142.836C66.8203 143.049 66.2891 143.156 65.6953 143.156C65.1016 143.156 64.5677 143.049 64.0938 142.836C63.6198 142.617 63.2135 142.315 62.875 141.93C62.5417 141.539 62.2865 141.083 62.1094 140.562C61.9323 140.042 61.8438 139.477 61.8438 138.867ZM63.2891 138.688V138.867C63.2891 139.289 63.3385 139.688 63.4375 140.062C63.5365 140.432 63.6849 140.76 63.8828 141.047C64.0859 141.333 64.3385 141.56 64.6406 141.727C64.9427 141.888 65.2943 141.969 65.6953 141.969C66.0911 141.969 66.4375 141.888 66.7344 141.727C67.0365 141.56 67.2865 141.333 67.4844 141.047C67.6823 140.76 67.8307 140.432 67.9297 140.062C68.0339 139.688 68.0859 139.289 68.0859 138.867V138.688C68.0859 138.271 68.0339 137.878 67.9297 137.508C67.8307 137.133 67.6797 136.802 67.4766 136.516C67.2786 136.224 67.0286 135.995 66.7266 135.828C66.4297 135.661 66.0807 135.578 65.6797 135.578C65.2839 135.578 64.9349 135.661 64.6328 135.828C64.3359 135.995 64.0859 136.224 63.8828 136.516C63.6849 136.802 63.5365 137.133 63.4375 137.508C63.3385 137.878 63.2891 138.271 63.2891 138.688ZM73.2969 136.352V143H71.8516V134.547H73.2188L73.2969 136.352ZM72.9531 138.453L72.3516 138.43C72.3568 137.852 72.4427 137.318 72.6094 136.828C72.776 136.333 73.0104 135.904 73.3125 135.539C73.6146 135.174 73.974 134.893 74.3906 134.695C74.8125 134.492 75.2786 134.391 75.7891 134.391C76.2057 134.391 76.5807 134.448 76.9141 134.562C77.2474 134.672 77.5312 134.849 77.7656 135.094C78.0052 135.339 78.1875 135.656 78.3125 136.047C78.4375 136.432 78.5 136.904 78.5 137.461V143H77.0469V137.445C77.0469 137.003 76.9818 136.648 76.8516 136.383C76.7214 136.112 76.5312 135.917 76.2812 135.797C76.0312 135.672 75.724 135.609 75.3594 135.609C75 135.609 74.6719 135.685 74.375 135.836C74.0833 135.987 73.8307 136.195 73.6172 136.461C73.4089 136.727 73.2448 137.031 73.125 137.375C73.0104 137.714 72.9531 138.073 72.9531 138.453ZM84.7031 143.156C84.1146 143.156 83.5807 143.057 83.1016 142.859C82.6276 142.656 82.2188 142.372 81.875 142.008C81.5365 141.643 81.276 141.211 81.0938 140.711C80.9115 140.211 80.8203 139.664 80.8203 139.07V138.742C80.8203 138.055 80.9219 137.443 81.125 136.906C81.3281 136.365 81.6042 135.906 81.9531 135.531C82.3021 135.156 82.6979 134.872 83.1406 134.68C83.5833 134.487 84.0417 134.391 84.5156 134.391C85.1198 134.391 85.6406 134.495 86.0781 134.703C86.5208 134.911 86.8828 135.203 87.1641 135.578C87.4453 135.948 87.6536 136.385 87.7891 136.891C87.9245 137.391 87.9922 137.938 87.9922 138.531V139.18H81.6797V138H86.5469V137.891C86.526 137.516 86.4479 137.151 86.3125 136.797C86.1823 136.443 85.974 136.151 85.6875 135.922C85.401 135.693 85.0104 135.578 84.5156 135.578C84.1875 135.578 83.8854 135.648 83.6094 135.789C83.3333 135.924 83.0964 136.128 82.8984 136.398C82.7005 136.669 82.5469 137 82.4375 137.391C82.3281 137.781 82.2734 138.232 82.2734 138.742V139.07C82.2734 139.471 82.3281 139.849 82.4375 140.203C82.5521 140.552 82.7161 140.859 82.9297 141.125C83.1484 141.391 83.4115 141.599 83.7188 141.75C84.0312 141.901 84.3854 141.977 84.7812 141.977C85.2917 141.977 85.724 141.872 86.0781 141.664C86.4323 141.456 86.7422 141.177 87.0078 140.828L87.8828 141.523C87.7005 141.799 87.4688 142.062 87.1875 142.312C86.9062 142.562 86.5599 142.766 86.1484 142.922C85.7422 143.078 85.2604 143.156 84.7031 143.156ZM99.5703 140.758C99.5703 140.549 99.5234 140.357 99.4297 140.18C99.3411 139.997 99.1562 139.833 98.875 139.688C98.599 139.536 98.1823 139.406 97.625 139.297C97.1562 139.198 96.7318 139.081 96.3516 138.945C95.9766 138.81 95.6562 138.646 95.3906 138.453C95.1302 138.26 94.9297 138.034 94.7891 137.773C94.6484 137.513 94.5781 137.208 94.5781 136.859C94.5781 136.526 94.651 136.211 94.7969 135.914C94.9479 135.617 95.1589 135.354 95.4297 135.125C95.7057 134.896 96.0365 134.716 96.4219 134.586C96.8073 134.456 97.237 134.391 97.7109 134.391C98.388 134.391 98.9661 134.51 99.4453 134.75C99.9245 134.99 100.292 135.31 100.547 135.711C100.802 136.107 100.93 136.547 100.93 137.031H99.4844C99.4844 136.797 99.4141 136.57 99.2734 136.352C99.138 136.128 98.9375 135.943 98.6719 135.797C98.4115 135.651 98.0911 135.578 97.7109 135.578C97.3099 135.578 96.9844 135.641 96.7344 135.766C96.4896 135.885 96.3099 136.039 96.1953 136.227C96.0859 136.414 96.0312 136.612 96.0312 136.82C96.0312 136.977 96.0573 137.117 96.1094 137.242C96.1667 137.362 96.2656 137.474 96.4062 137.578C96.5469 137.677 96.7448 137.771 97 137.859C97.2552 137.948 97.5807 138.036 97.9766 138.125C98.6693 138.281 99.2396 138.469 99.6875 138.688C100.135 138.906 100.469 139.174 100.688 139.492C100.906 139.81 101.016 140.195 101.016 140.648C101.016 141.018 100.938 141.357 100.781 141.664C100.63 141.971 100.409 142.237 100.117 142.461C99.8307 142.68 99.487 142.852 99.0859 142.977C98.6901 143.096 98.2448 143.156 97.75 143.156C97.0052 143.156 96.375 143.023 95.8594 142.758C95.3438 142.492 94.9531 142.148 94.6875 141.727C94.4219 141.305 94.2891 140.859 94.2891 140.391H95.7422C95.763 140.786 95.8776 141.102 96.0859 141.336C96.2943 141.565 96.5495 141.729 96.8516 141.828C97.1536 141.922 97.4531 141.969 97.75 141.969C98.1458 141.969 98.4766 141.917 98.7422 141.812C99.013 141.708 99.2188 141.565 99.3594 141.383C99.5 141.201 99.5703 140.992 99.5703 140.758ZM106.922 143.156C106.333 143.156 105.799 143.057 105.32 142.859C104.846 142.656 104.438 142.372 104.094 142.008C103.755 141.643 103.495 141.211 103.312 140.711C103.13 140.211 103.039 139.664 103.039 139.07V138.742C103.039 138.055 103.141 137.443 103.344 136.906C103.547 136.365 103.823 135.906 104.172 135.531C104.521 135.156 104.917 134.872 105.359 134.68C105.802 134.487 106.26 134.391 106.734 134.391C107.339 134.391 107.859 134.495 108.297 134.703C108.74 134.911 109.102 135.203 109.383 135.578C109.664 135.948 109.872 136.385 110.008 136.891C110.143 137.391 110.211 137.938 110.211 138.531V139.18H103.898V138H108.766V137.891C108.745 137.516 108.667 137.151 108.531 136.797C108.401 136.443 108.193 136.151 107.906 135.922C107.62 135.693 107.229 135.578 106.734 135.578C106.406 135.578 106.104 135.648 105.828 135.789C105.552 135.924 105.315 136.128 105.117 136.398C104.919 136.669 104.766 137 104.656 137.391C104.547 137.781 104.492 138.232 104.492 138.742V139.07C104.492 139.471 104.547 139.849 104.656 140.203C104.771 140.552 104.935 140.859 105.148 141.125C105.367 141.391 105.63 141.599 105.938 141.75C106.25 141.901 106.604 141.977 107 141.977C107.51 141.977 107.943 141.872 108.297 141.664C108.651 141.456 108.961 141.177 109.227 140.828L110.102 141.523C109.919 141.799 109.688 142.062 109.406 142.312C109.125 142.562 108.779 142.766 108.367 142.922C107.961 143.078 107.479 143.156 106.922 143.156ZM117.57 141.047V134.547H119.023V143H117.641L117.57 141.047ZM117.844 139.266L118.445 139.25C118.445 139.812 118.385 140.333 118.266 140.812C118.151 141.286 117.964 141.698 117.703 142.047C117.443 142.396 117.102 142.669 116.68 142.867C116.258 143.06 115.745 143.156 115.141 143.156C114.729 143.156 114.352 143.096 114.008 142.977C113.669 142.857 113.378 142.672 113.133 142.422C112.888 142.172 112.698 141.846 112.562 141.445C112.432 141.044 112.367 140.562 112.367 140V134.547H113.812V140.016C113.812 140.396 113.854 140.711 113.938 140.961C114.026 141.206 114.143 141.401 114.289 141.547C114.44 141.688 114.607 141.786 114.789 141.844C114.977 141.901 115.169 141.93 115.367 141.93C115.982 141.93 116.469 141.812 116.828 141.578C117.188 141.339 117.445 141.018 117.602 140.617C117.763 140.211 117.844 139.76 117.844 139.266ZM127.641 136.172V146.25H126.188V134.547H127.516L127.641 136.172ZM133.336 138.703V138.867C133.336 139.482 133.263 140.052 133.117 140.578C132.971 141.099 132.758 141.552 132.477 141.938C132.201 142.323 131.859 142.622 131.453 142.836C131.047 143.049 130.581 143.156 130.055 143.156C129.518 143.156 129.044 143.068 128.633 142.891C128.221 142.714 127.872 142.456 127.586 142.117C127.299 141.779 127.07 141.372 126.898 140.898C126.732 140.424 126.617 139.891 126.555 139.297V138.422C126.617 137.797 126.734 137.237 126.906 136.742C127.078 136.247 127.305 135.826 127.586 135.477C127.872 135.122 128.219 134.854 128.625 134.672C129.031 134.484 129.5 134.391 130.031 134.391C130.562 134.391 131.034 134.495 131.445 134.703C131.857 134.906 132.203 135.198 132.484 135.578C132.766 135.958 132.977 136.414 133.117 136.945C133.263 137.471 133.336 138.057 133.336 138.703ZM131.883 138.867V138.703C131.883 138.281 131.839 137.885 131.75 137.516C131.661 137.141 131.523 136.812 131.336 136.531C131.154 136.245 130.919 136.021 130.633 135.859C130.346 135.693 130.005 135.609 129.609 135.609C129.245 135.609 128.927 135.672 128.656 135.797C128.391 135.922 128.164 136.091 127.977 136.305C127.789 136.513 127.635 136.753 127.516 137.023C127.401 137.289 127.315 137.565 127.258 137.852V139.875C127.362 140.24 127.508 140.583 127.695 140.906C127.883 141.224 128.133 141.482 128.445 141.68C128.758 141.872 129.151 141.969 129.625 141.969C130.016 141.969 130.352 141.888 130.633 141.727C130.919 141.56 131.154 141.333 131.336 141.047C131.523 140.76 131.661 140.432 131.75 140.062C131.839 139.688 131.883 139.289 131.883 138.867ZM137.125 135.875V143H135.68V134.547H137.086L137.125 135.875ZM139.766 134.5L139.758 135.844C139.638 135.818 139.523 135.802 139.414 135.797C139.31 135.786 139.19 135.781 139.055 135.781C138.721 135.781 138.427 135.833 138.172 135.938C137.917 136.042 137.701 136.188 137.523 136.375C137.346 136.562 137.206 136.786 137.102 137.047C137.003 137.302 136.938 137.583 136.906 137.891L136.5 138.125C136.5 137.615 136.549 137.135 136.648 136.688C136.753 136.24 136.911 135.844 137.125 135.5C137.339 135.151 137.609 134.88 137.938 134.688C138.271 134.49 138.667 134.391 139.125 134.391C139.229 134.391 139.349 134.404 139.484 134.43C139.62 134.451 139.714 134.474 139.766 134.5ZM143.172 134.547V143H141.719V134.547H143.172ZM141.609 132.305C141.609 132.07 141.68 131.872 141.82 131.711C141.966 131.549 142.18 131.469 142.461 131.469C142.737 131.469 142.948 131.549 143.094 131.711C143.245 131.872 143.32 132.07 143.32 132.305C143.32 132.529 143.245 132.721 143.094 132.883C142.948 133.039 142.737 133.117 142.461 133.117C142.18 133.117 141.966 133.039 141.82 132.883C141.68 132.721 141.609 132.529 141.609 132.305ZM147.43 136.227V143H145.977V134.547H147.352L147.43 136.227ZM147.133 138.453L146.461 138.43C146.466 137.852 146.542 137.318 146.688 136.828C146.833 136.333 147.049 135.904 147.336 135.539C147.622 135.174 147.979 134.893 148.406 134.695C148.833 134.492 149.328 134.391 149.891 134.391C150.286 134.391 150.651 134.448 150.984 134.562C151.318 134.672 151.607 134.846 151.852 135.086C152.096 135.326 152.286 135.633 152.422 136.008C152.557 136.383 152.625 136.836 152.625 137.367V143H151.18V137.438C151.18 136.995 151.104 136.641 150.953 136.375C150.807 136.109 150.599 135.917 150.328 135.797C150.057 135.672 149.74 135.609 149.375 135.609C148.948 135.609 148.591 135.685 148.305 135.836C148.018 135.987 147.789 136.195 147.617 136.461C147.445 136.727 147.32 137.031 147.242 137.375C147.169 137.714 147.133 138.073 147.133 138.453ZM152.609 137.656L151.641 137.953C151.646 137.49 151.721 137.044 151.867 136.617C152.018 136.19 152.234 135.81 152.516 135.477C152.802 135.143 153.154 134.88 153.57 134.688C153.987 134.49 154.464 134.391 155 134.391C155.453 134.391 155.854 134.451 156.203 134.57C156.557 134.69 156.854 134.875 157.094 135.125C157.339 135.37 157.523 135.685 157.648 136.07C157.773 136.456 157.836 136.914 157.836 137.445V143H156.383V137.43C156.383 136.956 156.307 136.589 156.156 136.328C156.01 136.062 155.802 135.878 155.531 135.773C155.266 135.664 154.948 135.609 154.578 135.609C154.26 135.609 153.979 135.664 153.734 135.773C153.49 135.883 153.284 136.034 153.117 136.227C152.951 136.414 152.823 136.63 152.734 136.875C152.651 137.12 152.609 137.38 152.609 137.656ZM164.031 143.156C163.443 143.156 162.909 143.057 162.43 142.859C161.956 142.656 161.547 142.372 161.203 142.008C160.865 141.643 160.604 141.211 160.422 140.711C160.24 140.211 160.148 139.664 160.148 139.07V138.742C160.148 138.055 160.25 137.443 160.453 136.906C160.656 136.365 160.932 135.906 161.281 135.531C161.63 135.156 162.026 134.872 162.469 134.68C162.911 134.487 163.37 134.391 163.844 134.391C164.448 134.391 164.969 134.495 165.406 134.703C165.849 134.911 166.211 135.203 166.492 135.578C166.773 135.948 166.982 136.385 167.117 136.891C167.253 137.391 167.32 137.938 167.32 138.531V139.18H161.008V138H165.875V137.891C165.854 137.516 165.776 137.151 165.641 136.797C165.51 136.443 165.302 136.151 165.016 135.922C164.729 135.693 164.339 135.578 163.844 135.578C163.516 135.578 163.214 135.648 162.938 135.789C162.661 135.924 162.424 136.128 162.227 136.398C162.029 136.669 161.875 137 161.766 137.391C161.656 137.781 161.602 138.232 161.602 138.742V139.07C161.602 139.471 161.656 139.849 161.766 140.203C161.88 140.552 162.044 140.859 162.258 141.125C162.477 141.391 162.74 141.599 163.047 141.75C163.359 141.901 163.714 141.977 164.109 141.977C164.62 141.977 165.052 141.872 165.406 141.664C165.76 141.456 166.07 141.177 166.336 140.828L167.211 141.523C167.029 141.799 166.797 142.062 166.516 142.312C166.234 142.562 165.888 142.766 165.477 142.922C165.07 143.078 164.589 143.156 164.031 143.156ZM171.078 134.547V143H169.625V134.547H171.078ZM169.516 132.305C169.516 132.07 169.586 131.872 169.727 131.711C169.872 131.549 170.086 131.469 170.367 131.469C170.643 131.469 170.854 131.549 171 131.711C171.151 131.872 171.227 132.07 171.227 132.305C171.227 132.529 171.151 132.721 171 132.883C170.854 133.039 170.643 133.117 170.367 133.117C170.086 133.117 169.872 133.039 169.727 132.883C169.586 132.721 169.516 132.529 169.516 132.305ZM175.344 135.875V143H173.898V134.547H175.305L175.344 135.875ZM177.984 134.5L177.977 135.844C177.857 135.818 177.742 135.802 177.633 135.797C177.529 135.786 177.409 135.781 177.273 135.781C176.94 135.781 176.646 135.833 176.391 135.938C176.135 136.042 175.919 136.188 175.742 136.375C175.565 136.562 175.424 136.786 175.32 137.047C175.221 137.302 175.156 137.583 175.125 137.891L174.719 138.125C174.719 137.615 174.768 137.135 174.867 136.688C174.971 136.24 175.13 135.844 175.344 135.5C175.557 135.151 175.828 134.88 176.156 134.688C176.49 134.49 176.885 134.391 177.344 134.391C177.448 134.391 177.568 134.404 177.703 134.43C177.839 134.451 177.932 134.474 177.984 134.5ZM179.281 138.867V138.688C179.281 138.078 179.37 137.513 179.547 136.992C179.724 136.466 179.979 136.01 180.312 135.625C180.646 135.234 181.049 134.932 181.523 134.719C181.997 134.5 182.529 134.391 183.117 134.391C183.711 134.391 184.245 134.5 184.719 134.719C185.198 134.932 185.604 135.234 185.938 135.625C186.276 136.01 186.534 136.466 186.711 136.992C186.888 137.513 186.977 138.078 186.977 138.688V138.867C186.977 139.477 186.888 140.042 186.711 140.562C186.534 141.083 186.276 141.539 185.938 141.93C185.604 142.315 185.201 142.617 184.727 142.836C184.258 143.049 183.727 143.156 183.133 143.156C182.539 143.156 182.005 143.049 181.531 142.836C181.057 142.617 180.651 142.315 180.312 141.93C179.979 141.539 179.724 141.083 179.547 140.562C179.37 140.042 179.281 139.477 179.281 138.867ZM180.727 138.688V138.867C180.727 139.289 180.776 139.688 180.875 140.062C180.974 140.432 181.122 140.76 181.32 141.047C181.523 141.333 181.776 141.56 182.078 141.727C182.38 141.888 182.732 141.969 183.133 141.969C183.529 141.969 183.875 141.888 184.172 141.727C184.474 141.56 184.724 141.333 184.922 141.047C185.12 140.76 185.268 140.432 185.367 140.062C185.471 139.688 185.523 139.289 185.523 138.867V138.688C185.523 138.271 185.471 137.878 185.367 137.508C185.268 137.133 185.117 136.802 184.914 136.516C184.716 136.224 184.466 135.995 184.164 135.828C183.867 135.661 183.518 135.578 183.117 135.578C182.721 135.578 182.372 135.661 182.07 135.828C181.773 135.995 181.523 136.224 181.32 136.516C181.122 136.802 180.974 137.133 180.875 137.508C180.776 137.878 180.727 138.271 180.727 138.688ZM195.203 136.172V146.25H193.75V134.547H195.078L195.203 136.172ZM200.898 138.703V138.867C200.898 139.482 200.826 140.052 200.68 140.578C200.534 141.099 200.32 141.552 200.039 141.938C199.763 142.323 199.422 142.622 199.016 142.836C198.609 143.049 198.143 143.156 197.617 143.156C197.081 143.156 196.607 143.068 196.195 142.891C195.784 142.714 195.435 142.456 195.148 142.117C194.862 141.779 194.633 141.372 194.461 140.898C194.294 140.424 194.18 139.891 194.117 139.297V138.422C194.18 137.797 194.297 137.237 194.469 136.742C194.641 136.247 194.867 135.826 195.148 135.477C195.435 135.122 195.781 134.854 196.188 134.672C196.594 134.484 197.062 134.391 197.594 134.391C198.125 134.391 198.596 134.495 199.008 134.703C199.419 134.906 199.766 135.198 200.047 135.578C200.328 135.958 200.539 136.414 200.68 136.945C200.826 137.471 200.898 138.057 200.898 138.703ZM199.445 138.867V138.703C199.445 138.281 199.401 137.885 199.312 137.516C199.224 137.141 199.086 136.812 198.898 136.531C198.716 136.245 198.482 136.021 198.195 135.859C197.909 135.693 197.568 135.609 197.172 135.609C196.807 135.609 196.49 135.672 196.219 135.797C195.953 135.922 195.727 136.091 195.539 136.305C195.352 136.513 195.198 136.753 195.078 137.023C194.964 137.289 194.878 137.565 194.82 137.852V139.875C194.924 140.24 195.07 140.583 195.258 140.906C195.445 141.224 195.695 141.482 196.008 141.68C196.32 141.872 196.714 141.969 197.188 141.969C197.578 141.969 197.914 141.888 198.195 141.727C198.482 141.56 198.716 141.333 198.898 141.047C199.086 140.76 199.224 140.432 199.312 140.062C199.401 139.688 199.445 139.289 199.445 138.867ZM204.688 135.875V143H203.242V134.547H204.648L204.688 135.875ZM207.328 134.5L207.32 135.844C207.201 135.818 207.086 135.802 206.977 135.797C206.872 135.786 206.753 135.781 206.617 135.781C206.284 135.781 205.99 135.833 205.734 135.938C205.479 136.042 205.263 136.188 205.086 136.375C204.909 136.562 204.768 136.786 204.664 137.047C204.565 137.302 204.5 137.583 204.469 137.891L204.062 138.125C204.062 137.615 204.112 137.135 204.211 136.688C204.315 136.24 204.474 135.844 204.688 135.5C204.901 135.151 205.172 134.88 205.5 134.688C205.833 134.49 206.229 134.391 206.688 134.391C206.792 134.391 206.911 134.404 207.047 134.43C207.182 134.451 207.276 134.474 207.328 134.5ZM208.625 138.867V138.688C208.625 138.078 208.714 137.513 208.891 136.992C209.068 136.466 209.323 136.01 209.656 135.625C209.99 135.234 210.393 134.932 210.867 134.719C211.341 134.5 211.872 134.391 212.461 134.391C213.055 134.391 213.589 134.5 214.062 134.719C214.542 134.932 214.948 135.234 215.281 135.625C215.62 136.01 215.878 136.466 216.055 136.992C216.232 137.513 216.32 138.078 216.32 138.688V138.867C216.32 139.477 216.232 140.042 216.055 140.562C215.878 141.083 215.62 141.539 215.281 141.93C214.948 142.315 214.544 142.617 214.07 142.836C213.602 143.049 213.07 143.156 212.477 143.156C211.883 143.156 211.349 143.049 210.875 142.836C210.401 142.617 209.995 142.315 209.656 141.93C209.323 141.539 209.068 141.083 208.891 140.562C208.714 140.042 208.625 139.477 208.625 138.867ZM210.07 138.688V138.867C210.07 139.289 210.12 139.688 210.219 140.062C210.318 140.432 210.466 140.76 210.664 141.047C210.867 141.333 211.12 141.56 211.422 141.727C211.724 141.888 212.076 141.969 212.477 141.969C212.872 141.969 213.219 141.888 213.516 141.727C213.818 141.56 214.068 141.333 214.266 141.047C214.464 140.76 214.612 140.432 214.711 140.062C214.815 139.688 214.867 139.289 214.867 138.867V138.688C214.867 138.271 214.815 137.878 214.711 137.508C214.612 137.133 214.461 136.802 214.258 136.516C214.06 136.224 213.81 135.995 213.508 135.828C213.211 135.661 212.862 135.578 212.461 135.578C212.065 135.578 211.716 135.661 211.414 135.828C211.117 135.995 210.867 136.224 210.664 136.516C210.466 136.802 210.318 137.133 210.219 137.508C210.12 137.878 210.07 138.271 210.07 138.688ZM218.672 134.547H220.125V144.008C220.125 144.523 220.042 144.961 219.875 145.32C219.714 145.68 219.469 145.951 219.141 146.133C218.818 146.32 218.409 146.414 217.914 146.414C217.784 146.414 217.633 146.401 217.461 146.375C217.284 146.349 217.135 146.318 217.016 146.281L217.023 145.117C217.122 145.138 217.234 145.154 217.359 145.164C217.484 145.18 217.594 145.188 217.688 145.188C217.901 145.188 218.081 145.148 218.227 145.07C218.372 144.992 218.482 144.867 218.555 144.695C218.633 144.523 218.672 144.294 218.672 144.008V134.547ZM218.523 132.305C218.523 132.07 218.596 131.872 218.742 131.711C218.888 131.549 219.099 131.469 219.375 131.469C219.656 131.469 219.87 131.549 220.016 131.711C220.161 131.872 220.234 132.07 220.234 132.305C220.234 132.529 220.161 132.721 220.016 132.883C219.87 133.039 219.656 133.117 219.375 133.117C219.099 133.117 218.888 133.039 218.742 132.883C218.596 132.721 218.523 132.529 218.523 132.305ZM226.469 143.156C225.88 143.156 225.346 143.057 224.867 142.859C224.393 142.656 223.984 142.372 223.641 142.008C223.302 141.643 223.042 141.211 222.859 140.711C222.677 140.211 222.586 139.664 222.586 139.07V138.742C222.586 138.055 222.688 137.443 222.891 136.906C223.094 136.365 223.37 135.906 223.719 135.531C224.068 135.156 224.464 134.872 224.906 134.68C225.349 134.487 225.807 134.391 226.281 134.391C226.885 134.391 227.406 134.495 227.844 134.703C228.286 134.911 228.648 135.203 228.93 135.578C229.211 135.948 229.419 136.385 229.555 136.891C229.69 137.391 229.758 137.938 229.758 138.531V139.18H223.445V138H228.312V137.891C228.292 137.516 228.214 137.151 228.078 136.797C227.948 136.443 227.74 136.151 227.453 135.922C227.167 135.693 226.776 135.578 226.281 135.578C225.953 135.578 225.651 135.648 225.375 135.789C225.099 135.924 224.862 136.128 224.664 136.398C224.466 136.669 224.312 137 224.203 137.391C224.094 137.781 224.039 138.232 224.039 138.742V139.07C224.039 139.471 224.094 139.849 224.203 140.203C224.318 140.552 224.482 140.859 224.695 141.125C224.914 141.391 225.177 141.599 225.484 141.75C225.797 141.901 226.151 141.977 226.547 141.977C227.057 141.977 227.49 141.872 227.844 141.664C228.198 141.456 228.508 141.177 228.773 140.828L229.648 141.523C229.466 141.799 229.234 142.062 228.953 142.312C228.672 142.562 228.326 142.766 227.914 142.922C227.508 143.078 227.026 143.156 226.469 143.156ZM235.484 134.547V135.656H230.914V134.547H235.484ZM232.461 132.492H233.906V140.906C233.906 141.193 233.951 141.409 234.039 141.555C234.128 141.701 234.242 141.797 234.383 141.844C234.523 141.891 234.674 141.914 234.836 141.914C234.956 141.914 235.081 141.904 235.211 141.883C235.346 141.857 235.448 141.836 235.516 141.82L235.523 143C235.409 143.036 235.258 143.07 235.07 143.102C234.888 143.138 234.667 143.156 234.406 143.156C234.052 143.156 233.727 143.086 233.43 142.945C233.133 142.805 232.896 142.57 232.719 142.242C232.547 141.909 232.461 141.461 232.461 140.898V132.492ZM237.141 138.867V138.688C237.141 138.078 237.229 137.513 237.406 136.992C237.583 136.466 237.839 136.01 238.172 135.625C238.505 135.234 238.909 134.932 239.383 134.719C239.857 134.5 240.388 134.391 240.977 134.391C241.57 134.391 242.104 134.5 242.578 134.719C243.057 134.932 243.464 135.234 243.797 135.625C244.135 136.01 244.393 136.466 244.57 136.992C244.747 137.513 244.836 138.078 244.836 138.688V138.867C244.836 139.477 244.747 140.042 244.57 140.562C244.393 141.083 244.135 141.539 243.797 141.93C243.464 142.315 243.06 142.617 242.586 142.836C242.117 143.049 241.586 143.156 240.992 143.156C240.398 143.156 239.865 143.049 239.391 142.836C238.917 142.617 238.51 142.315 238.172 141.93C237.839 141.539 237.583 141.083 237.406 140.562C237.229 140.042 237.141 139.477 237.141 138.867ZM238.586 138.688V138.867C238.586 139.289 238.635 139.688 238.734 140.062C238.833 140.432 238.982 140.76 239.18 141.047C239.383 141.333 239.635 141.56 239.938 141.727C240.24 141.888 240.591 141.969 240.992 141.969C241.388 141.969 241.734 141.888 242.031 141.727C242.333 141.56 242.583 141.333 242.781 141.047C242.979 140.76 243.128 140.432 243.227 140.062C243.331 139.688 243.383 139.289 243.383 138.867V138.688C243.383 138.271 243.331 137.878 243.227 137.508C243.128 137.133 242.977 136.802 242.773 136.516C242.576 136.224 242.326 135.995 242.023 135.828C241.727 135.661 241.378 135.578 240.977 135.578C240.581 135.578 240.232 135.661 239.93 135.828C239.633 135.995 239.383 136.224 239.18 136.516C238.982 136.802 238.833 137.133 238.734 137.508C238.635 137.878 238.586 138.271 238.586 138.688Z" fill="#303133"/>
<path opacity="0.6" d="M28.1641 170.835H29.4766C29.4082 171.464 29.2282 172.027 28.9365 172.523C28.6449 173.02 28.2324 173.414 27.6992 173.706C27.166 173.993 26.5007 174.137 25.7031 174.137C25.1198 174.137 24.5889 174.027 24.1104 173.809C23.6364 173.59 23.2285 173.28 22.8867 172.879C22.5449 172.473 22.2806 171.988 22.0938 171.423C21.9115 170.853 21.8203 170.22 21.8203 169.522V168.531C21.8203 167.834 21.9115 167.203 22.0938 166.638C22.2806 166.068 22.5472 165.58 22.8936 165.175C23.2445 164.769 23.666 164.457 24.1582 164.238C24.6504 164.02 25.2041 163.91 25.8193 163.91C26.5713 163.91 27.207 164.051 27.7266 164.334C28.2461 164.617 28.6494 165.008 28.9365 165.51C29.2282 166.007 29.4082 166.583 29.4766 167.239H28.1641C28.1003 166.774 27.9818 166.376 27.8086 166.043C27.6354 165.706 27.3893 165.446 27.0703 165.264C26.7513 165.081 26.3343 164.99 25.8193 164.99C25.3773 164.99 24.9876 165.075 24.6504 165.243C24.3177 165.412 24.0374 165.651 23.8096 165.961C23.5863 166.271 23.4176 166.642 23.3037 167.075C23.1898 167.508 23.1328 167.989 23.1328 168.518V169.522C23.1328 170.01 23.1829 170.468 23.2832 170.896C23.388 171.325 23.5452 171.701 23.7549 172.024C23.9645 172.348 24.2311 172.603 24.5547 172.79C24.8783 172.972 25.2611 173.063 25.7031 173.063C26.2637 173.063 26.7103 172.975 27.043 172.797C27.3757 172.619 27.6263 172.364 27.7949 172.031C27.9681 171.699 28.0911 171.3 28.1641 170.835ZM30.998 170.384V170.227C30.998 169.693 31.0755 169.199 31.2305 168.743C31.3854 168.283 31.6087 167.884 31.9004 167.547C32.1921 167.205 32.5452 166.941 32.96 166.754C33.3747 166.562 33.8395 166.467 34.3545 166.467C34.874 166.467 35.3411 166.562 35.7559 166.754C36.1751 166.941 36.5306 167.205 36.8223 167.547C37.1185 167.884 37.3441 168.283 37.499 168.743C37.654 169.199 37.7314 169.693 37.7314 170.227V170.384C37.7314 170.917 37.654 171.411 37.499 171.867C37.3441 172.323 37.1185 172.722 36.8223 173.063C36.5306 173.401 36.1774 173.665 35.7627 173.856C35.3525 174.043 34.8877 174.137 34.3682 174.137C33.8486 174.137 33.3815 174.043 32.9668 173.856C32.5521 173.665 32.1966 173.401 31.9004 173.063C31.6087 172.722 31.3854 172.323 31.2305 171.867C31.0755 171.411 30.998 170.917 30.998 170.384ZM32.2627 170.227V170.384C32.2627 170.753 32.306 171.102 32.3926 171.43C32.4792 171.753 32.609 172.04 32.7822 172.291C32.96 172.542 33.181 172.74 33.4453 172.886C33.7096 173.027 34.0173 173.098 34.3682 173.098C34.7145 173.098 35.0176 173.027 35.2773 172.886C35.5417 172.74 35.7604 172.542 35.9336 172.291C36.1068 172.04 36.2367 171.753 36.3232 171.43C36.4144 171.102 36.46 170.753 36.46 170.384V170.227C36.46 169.862 36.4144 169.518 36.3232 169.194C36.2367 168.866 36.1045 168.577 35.9268 168.326C35.7536 168.071 35.5348 167.87 35.2705 167.725C35.0107 167.579 34.7054 167.506 34.3545 167.506C34.0081 167.506 33.7028 167.579 33.4385 167.725C33.1787 167.87 32.96 168.071 32.7822 168.326C32.609 168.577 32.4792 168.866 32.3926 169.194C32.306 169.518 32.2627 169.862 32.2627 170.227ZM40.8252 168.073V174H39.5537V166.604H40.7568L40.8252 168.073ZM40.5654 170.021L39.9775 170.001C39.9821 169.495 40.0482 169.028 40.1758 168.6C40.3034 168.167 40.4925 167.791 40.7432 167.472C40.9938 167.153 41.306 166.907 41.6797 166.733C42.0534 166.556 42.4863 166.467 42.9785 166.467C43.3249 166.467 43.6439 166.517 43.9355 166.617C44.2272 166.713 44.4801 166.866 44.6943 167.075C44.9085 167.285 45.0749 167.554 45.1934 167.882C45.3118 168.21 45.3711 168.606 45.3711 169.071V174H44.1064V169.133C44.1064 168.745 44.0404 168.436 43.9082 168.203C43.7806 167.971 43.5983 167.802 43.3613 167.697C43.1243 167.588 42.8464 167.533 42.5273 167.533C42.1536 167.533 41.8415 167.599 41.5908 167.731C41.3402 167.864 41.1396 168.046 40.9893 168.278C40.8389 168.511 40.7295 168.777 40.6611 169.078C40.5973 169.374 40.5654 169.689 40.5654 170.021ZM45.3574 169.324L44.5098 169.584C44.5143 169.178 44.5804 168.789 44.708 168.415C44.8402 168.041 45.0293 167.709 45.2754 167.417C45.526 167.125 45.8337 166.895 46.1982 166.727C46.5628 166.553 46.9798 166.467 47.4492 166.467C47.8457 166.467 48.1966 166.519 48.502 166.624C48.8118 166.729 49.0716 166.891 49.2812 167.109C49.4954 167.324 49.6572 167.599 49.7666 167.937C49.876 168.274 49.9307 168.675 49.9307 169.14V174H48.6592V169.126C48.6592 168.711 48.5931 168.39 48.4609 168.162C48.3333 167.93 48.151 167.768 47.9141 167.677C47.6816 167.581 47.4036 167.533 47.0801 167.533C46.8021 167.533 46.556 167.581 46.3418 167.677C46.1276 167.772 45.9476 167.905 45.8018 168.073C45.6559 168.237 45.5443 168.426 45.4668 168.641C45.3939 168.855 45.3574 169.083 45.3574 169.324ZM53.3594 168.025V176.844H52.0879V166.604H53.25L53.3594 168.025ZM58.3428 170.24V170.384C58.3428 170.922 58.279 171.421 58.1514 171.881C58.0238 172.337 57.8369 172.733 57.5908 173.07C57.3493 173.408 57.0508 173.67 56.6953 173.856C56.3398 174.043 55.932 174.137 55.4717 174.137C55.0023 174.137 54.5876 174.059 54.2275 173.904C53.8675 173.749 53.5622 173.524 53.3115 173.228C53.0609 172.931 52.8604 172.576 52.71 172.161C52.5641 171.746 52.4639 171.279 52.4092 170.76V169.994C52.4639 169.447 52.5664 168.957 52.7168 168.524C52.8672 168.091 53.0654 167.722 53.3115 167.417C53.5622 167.107 53.8652 166.872 54.2207 166.713C54.5762 166.549 54.9863 166.467 55.4512 166.467C55.916 166.467 56.3285 166.558 56.6885 166.74C57.0485 166.918 57.3516 167.173 57.5977 167.506C57.8438 167.839 58.0283 168.237 58.1514 168.702C58.279 169.162 58.3428 169.675 58.3428 170.24ZM57.0713 170.384V170.24C57.0713 169.871 57.0326 169.525 56.9551 169.201C56.8776 168.873 56.7568 168.586 56.5928 168.34C56.4333 168.089 56.2282 167.893 55.9775 167.752C55.7269 167.606 55.4284 167.533 55.082 167.533C54.763 167.533 54.485 167.588 54.248 167.697C54.0156 167.807 53.8174 167.955 53.6533 168.142C53.4893 168.324 53.3548 168.534 53.25 168.771C53.1497 169.003 53.0745 169.244 53.0244 169.495V171.266C53.1156 171.585 53.2432 171.885 53.4072 172.168C53.5713 172.446 53.79 172.672 54.0635 172.845C54.3369 173.013 54.681 173.098 55.0957 173.098C55.4375 173.098 55.7314 173.027 55.9775 172.886C56.2282 172.74 56.4333 172.542 56.5928 172.291C56.7568 172.04 56.8776 171.753 56.9551 171.43C57.0326 171.102 57.0713 170.753 57.0713 170.384ZM64.5674 172.735V168.928C64.5674 168.636 64.5081 168.383 64.3896 168.169C64.2757 167.95 64.1025 167.782 63.8701 167.663C63.6377 167.545 63.3506 167.485 63.0088 167.485C62.6898 167.485 62.4095 167.54 62.168 167.649C61.931 167.759 61.7441 167.902 61.6074 168.08C61.4753 168.258 61.4092 168.449 61.4092 168.654H60.1445C60.1445 168.39 60.2129 168.128 60.3496 167.868C60.4863 167.608 60.6823 167.374 60.9375 167.164C61.1973 166.95 61.5072 166.781 61.8672 166.658C62.2318 166.531 62.6374 166.467 63.084 166.467C63.6217 166.467 64.0957 166.558 64.5059 166.74C64.9206 166.923 65.2441 167.198 65.4766 167.567C65.7135 167.932 65.832 168.39 65.832 168.941V172.387C65.832 172.633 65.8525 172.895 65.8936 173.173C65.9391 173.451 66.0052 173.69 66.0918 173.891V174H64.7725C64.7087 173.854 64.6585 173.66 64.6221 173.419C64.5856 173.173 64.5674 172.945 64.5674 172.735ZM64.7861 169.516L64.7998 170.404H63.5215C63.1615 170.404 62.8402 170.434 62.5576 170.493C62.2751 170.548 62.0381 170.632 61.8467 170.746C61.6553 170.86 61.5094 171.004 61.4092 171.177C61.3089 171.345 61.2588 171.544 61.2588 171.771C61.2588 172.004 61.3112 172.216 61.416 172.407C61.5208 172.599 61.6781 172.751 61.8877 172.865C62.1019 172.975 62.3639 173.029 62.6738 173.029C63.0612 173.029 63.403 172.947 63.6992 172.783C63.9954 172.619 64.2301 172.419 64.4033 172.182C64.5811 171.945 64.6768 171.715 64.6904 171.491L65.2305 172.1C65.1986 172.291 65.112 172.503 64.9707 172.735C64.8294 172.968 64.6403 173.191 64.4033 173.405C64.1709 173.615 63.8929 173.79 63.5693 173.932C63.2503 174.068 62.8903 174.137 62.4893 174.137C61.988 174.137 61.5482 174.039 61.1699 173.843C60.7962 173.647 60.5046 173.385 60.2949 173.057C60.0898 172.724 59.9873 172.353 59.9873 171.942C59.9873 171.546 60.0648 171.197 60.2197 170.896C60.3747 170.591 60.598 170.338 60.8896 170.138C61.1813 169.933 61.5322 169.778 61.9424 169.673C62.3525 169.568 62.8105 169.516 63.3164 169.516H64.7861ZM69.3359 167.766V174H68.0713V166.604H69.3018L69.3359 167.766ZM71.6465 166.562L71.6396 167.738C71.5348 167.715 71.4346 167.702 71.3389 167.697C71.2477 167.688 71.1429 167.684 71.0244 167.684C70.7327 167.684 70.4753 167.729 70.252 167.82C70.0286 167.911 69.8395 168.039 69.6846 168.203C69.5296 168.367 69.4066 168.563 69.3154 168.791C69.2288 169.014 69.1719 169.26 69.1445 169.529L68.7891 169.734C68.7891 169.288 68.8324 168.868 68.9189 168.477C69.0101 168.085 69.1491 167.738 69.3359 167.438C69.5228 167.132 69.7598 166.895 70.0469 166.727C70.3385 166.553 70.6849 166.467 71.0859 166.467C71.1771 166.467 71.2819 166.478 71.4004 166.501C71.5189 166.519 71.6009 166.54 71.6465 166.562ZM76.5039 166.604V167.574H72.5049V166.604H76.5039ZM73.8584 164.806H75.123V172.168C75.123 172.419 75.1618 172.608 75.2393 172.735C75.3167 172.863 75.417 172.947 75.54 172.988C75.6631 173.029 75.7952 173.05 75.9365 173.05C76.0413 173.05 76.1507 173.041 76.2646 173.022C76.3831 173 76.472 172.981 76.5312 172.968L76.5381 174C76.4378 174.032 76.3057 174.062 76.1416 174.089C75.9821 174.121 75.7884 174.137 75.5605 174.137C75.2507 174.137 74.9658 174.075 74.7061 173.952C74.4463 173.829 74.2389 173.624 74.084 173.337C73.9336 173.045 73.8584 172.653 73.8584 172.161V164.806ZM79.6113 166.604V174H78.3398V166.604H79.6113ZM78.2441 164.642C78.2441 164.437 78.3057 164.263 78.4287 164.122C78.5563 163.981 78.7432 163.91 78.9893 163.91C79.2308 163.91 79.4154 163.981 79.543 164.122C79.6751 164.263 79.7412 164.437 79.7412 164.642C79.7412 164.838 79.6751 165.006 79.543 165.147C79.4154 165.284 79.2308 165.353 78.9893 165.353C78.7432 165.353 78.5563 165.284 78.4287 165.147C78.3057 165.006 78.2441 164.838 78.2441 164.642ZM83.2656 163.5V174H81.9941V163.5H83.2656ZM86.8105 163.5V174H85.5459V163.5H86.8105ZM86.5098 170.021L85.9834 170.001C85.988 169.495 86.0632 169.028 86.209 168.6C86.3548 168.167 86.5599 167.791 86.8242 167.472C87.0885 167.153 87.403 166.907 87.7676 166.733C88.1367 166.556 88.5446 166.467 88.9912 166.467C89.3558 166.467 89.6839 166.517 89.9756 166.617C90.2673 166.713 90.5156 166.868 90.7207 167.082C90.9303 167.296 91.0898 167.574 91.1992 167.916C91.3086 168.253 91.3633 168.666 91.3633 169.153V174H90.0918V169.14C90.0918 168.752 90.0348 168.442 89.9209 168.21C89.807 167.973 89.6406 167.802 89.4219 167.697C89.2031 167.588 88.9342 167.533 88.6152 167.533C88.3008 167.533 88.0137 167.599 87.7539 167.731C87.4987 167.864 87.2777 168.046 87.0908 168.278C86.9085 168.511 86.765 168.777 86.6602 169.078C86.5599 169.374 86.5098 169.689 86.5098 170.021ZM96.5762 174.137C96.0612 174.137 95.5941 174.05 95.1748 173.877C94.7601 173.699 94.4023 173.451 94.1016 173.132C93.8053 172.813 93.5775 172.435 93.418 171.997C93.2585 171.56 93.1787 171.081 93.1787 170.562V170.274C93.1787 169.673 93.2676 169.137 93.4453 168.668C93.623 168.194 93.8646 167.793 94.1699 167.465C94.4753 167.137 94.8216 166.888 95.209 166.72C95.5964 166.551 95.9974 166.467 96.4121 166.467C96.9408 166.467 97.3965 166.558 97.7793 166.74C98.1667 166.923 98.4834 167.178 98.7295 167.506C98.9756 167.829 99.1579 168.212 99.2764 168.654C99.3949 169.092 99.4541 169.57 99.4541 170.09V170.657H93.9307V169.625H98.1895V169.529C98.1712 169.201 98.1029 168.882 97.9844 168.572C97.8704 168.262 97.6882 168.007 97.4375 167.807C97.1868 167.606 96.8451 167.506 96.4121 167.506C96.125 167.506 95.8607 167.567 95.6191 167.69C95.3776 167.809 95.1702 167.987 94.9971 168.224C94.8239 168.461 94.6895 168.75 94.5938 169.092C94.498 169.434 94.4502 169.828 94.4502 170.274V170.562C94.4502 170.912 94.498 171.243 94.5938 171.553C94.694 171.858 94.8376 172.127 95.0244 172.359C95.2158 172.592 95.446 172.774 95.7148 172.906C95.9883 173.038 96.2982 173.104 96.6445 173.104C97.0911 173.104 97.4694 173.013 97.7793 172.831C98.0892 172.649 98.3604 172.405 98.5928 172.1L99.3584 172.708C99.1989 172.95 98.9961 173.18 98.75 173.398C98.5039 173.617 98.2008 173.795 97.8408 173.932C97.4854 174.068 97.0638 174.137 96.5762 174.137ZM109.21 172.038C109.21 171.856 109.169 171.687 109.087 171.532C109.009 171.373 108.848 171.229 108.602 171.102C108.36 170.969 107.995 170.855 107.508 170.76C107.098 170.673 106.726 170.571 106.394 170.452C106.065 170.334 105.785 170.19 105.553 170.021C105.325 169.853 105.149 169.655 105.026 169.427C104.903 169.199 104.842 168.932 104.842 168.627C104.842 168.335 104.906 168.06 105.033 167.8C105.165 167.54 105.35 167.31 105.587 167.109C105.828 166.909 106.118 166.752 106.455 166.638C106.792 166.524 107.168 166.467 107.583 166.467C108.175 166.467 108.681 166.572 109.101 166.781C109.52 166.991 109.841 167.271 110.064 167.622C110.288 167.968 110.399 168.354 110.399 168.777H109.135C109.135 168.572 109.073 168.374 108.95 168.183C108.832 167.987 108.656 167.825 108.424 167.697C108.196 167.57 107.916 167.506 107.583 167.506C107.232 167.506 106.947 167.561 106.729 167.67C106.514 167.775 106.357 167.909 106.257 168.073C106.161 168.237 106.113 168.41 106.113 168.593C106.113 168.729 106.136 168.853 106.182 168.962C106.232 169.067 106.318 169.165 106.441 169.256C106.564 169.342 106.738 169.424 106.961 169.502C107.184 169.579 107.469 169.657 107.815 169.734C108.422 169.871 108.921 170.035 109.312 170.227C109.704 170.418 109.996 170.653 110.188 170.931C110.379 171.209 110.475 171.546 110.475 171.942C110.475 172.266 110.406 172.562 110.27 172.831C110.137 173.1 109.944 173.332 109.688 173.528C109.438 173.72 109.137 173.87 108.786 173.979C108.44 174.084 108.05 174.137 107.617 174.137C106.965 174.137 106.414 174.021 105.963 173.788C105.512 173.556 105.17 173.255 104.938 172.886C104.705 172.517 104.589 172.127 104.589 171.717H105.86C105.879 172.063 105.979 172.339 106.161 172.544C106.343 172.744 106.567 172.888 106.831 172.975C107.095 173.057 107.357 173.098 107.617 173.098C107.964 173.098 108.253 173.052 108.485 172.961C108.722 172.87 108.902 172.744 109.025 172.585C109.148 172.425 109.21 172.243 109.21 172.038ZM115.455 174.137C114.94 174.137 114.473 174.05 114.054 173.877C113.639 173.699 113.281 173.451 112.98 173.132C112.684 172.813 112.456 172.435 112.297 171.997C112.137 171.56 112.058 171.081 112.058 170.562V170.274C112.058 169.673 112.146 169.137 112.324 168.668C112.502 168.194 112.743 167.793 113.049 167.465C113.354 167.137 113.701 166.888 114.088 166.72C114.475 166.551 114.876 166.467 115.291 166.467C115.82 166.467 116.275 166.558 116.658 166.74C117.046 166.923 117.362 167.178 117.608 167.506C117.854 167.829 118.037 168.212 118.155 168.654C118.274 169.092 118.333 169.57 118.333 170.09V170.657H112.81V169.625H117.068V169.529C117.05 169.201 116.982 168.882 116.863 168.572C116.749 168.262 116.567 168.007 116.316 167.807C116.066 167.606 115.724 167.506 115.291 167.506C115.004 167.506 114.74 167.567 114.498 167.69C114.257 167.809 114.049 167.987 113.876 168.224C113.703 168.461 113.568 168.75 113.473 169.092C113.377 169.434 113.329 169.828 113.329 170.274V170.562C113.329 170.912 113.377 171.243 113.473 171.553C113.573 171.858 113.716 172.127 113.903 172.359C114.095 172.592 114.325 172.774 114.594 172.906C114.867 173.038 115.177 173.104 115.523 173.104C115.97 173.104 116.348 173.013 116.658 172.831C116.968 172.649 117.239 172.405 117.472 172.1L118.237 172.708C118.078 172.95 117.875 173.18 117.629 173.398C117.383 173.617 117.08 173.795 116.72 173.932C116.364 174.068 115.943 174.137 115.455 174.137ZM124.585 172.291V166.604H125.856V174H124.646L124.585 172.291ZM124.824 170.732L125.351 170.719C125.351 171.211 125.298 171.667 125.193 172.086C125.093 172.501 124.929 172.861 124.701 173.166C124.473 173.471 124.175 173.711 123.806 173.884C123.437 174.052 122.988 174.137 122.459 174.137C122.099 174.137 121.769 174.084 121.468 173.979C121.172 173.875 120.916 173.713 120.702 173.494C120.488 173.275 120.322 172.991 120.203 172.64C120.089 172.289 120.032 171.867 120.032 171.375V166.604H121.297V171.389C121.297 171.721 121.333 171.997 121.406 172.216C121.484 172.43 121.586 172.601 121.714 172.729C121.846 172.852 121.992 172.938 122.151 172.988C122.315 173.038 122.484 173.063 122.657 173.063C123.195 173.063 123.621 172.961 123.936 172.756C124.25 172.546 124.476 172.266 124.612 171.915C124.754 171.56 124.824 171.165 124.824 170.732ZM134.854 166.604V167.574H130.854V166.604H134.854ZM132.208 164.806H133.473V172.168C133.473 172.419 133.511 172.608 133.589 172.735C133.666 172.863 133.767 172.947 133.89 172.988C134.013 173.029 134.145 173.05 134.286 173.05C134.391 173.05 134.5 173.041 134.614 173.022C134.733 173 134.822 172.981 134.881 172.968L134.888 174C134.787 174.032 134.655 174.062 134.491 174.089C134.332 174.121 134.138 174.137 133.91 174.137C133.6 174.137 133.315 174.075 133.056 173.952C132.796 173.829 132.589 173.624 132.434 173.337C132.283 173.045 132.208 172.653 132.208 172.161V164.806ZM140.948 172.735V168.928C140.948 168.636 140.889 168.383 140.771 168.169C140.657 167.95 140.483 167.782 140.251 167.663C140.019 167.545 139.731 167.485 139.39 167.485C139.071 167.485 138.79 167.54 138.549 167.649C138.312 167.759 138.125 167.902 137.988 168.08C137.856 168.258 137.79 168.449 137.79 168.654H136.525C136.525 168.39 136.594 168.128 136.73 167.868C136.867 167.608 137.063 167.374 137.318 167.164C137.578 166.95 137.888 166.781 138.248 166.658C138.613 166.531 139.018 166.467 139.465 166.467C140.003 166.467 140.477 166.558 140.887 166.74C141.301 166.923 141.625 167.198 141.857 167.567C142.094 167.932 142.213 168.39 142.213 168.941V172.387C142.213 172.633 142.233 172.895 142.274 173.173C142.32 173.451 142.386 173.69 142.473 173.891V174H141.153C141.09 173.854 141.039 173.66 141.003 173.419C140.966 173.173 140.948 172.945 140.948 172.735ZM141.167 169.516L141.181 170.404H139.902C139.542 170.404 139.221 170.434 138.938 170.493C138.656 170.548 138.419 170.632 138.228 170.746C138.036 170.86 137.89 171.004 137.79 171.177C137.69 171.345 137.64 171.544 137.64 171.771C137.64 172.004 137.692 172.216 137.797 172.407C137.902 172.599 138.059 172.751 138.269 172.865C138.483 172.975 138.745 173.029 139.055 173.029C139.442 173.029 139.784 172.947 140.08 172.783C140.376 172.619 140.611 172.419 140.784 172.182C140.962 171.945 141.058 171.715 141.071 171.491L141.611 172.1C141.579 172.291 141.493 172.503 141.352 172.735C141.21 172.968 141.021 173.191 140.784 173.405C140.552 173.615 140.274 173.79 139.95 173.932C139.631 174.068 139.271 174.137 138.87 174.137C138.369 174.137 137.929 174.039 137.551 173.843C137.177 173.647 136.885 173.385 136.676 173.057C136.471 172.724 136.368 172.353 136.368 171.942C136.368 171.546 136.446 171.197 136.601 170.896C136.756 170.591 136.979 170.338 137.271 170.138C137.562 169.933 137.913 169.778 138.323 169.673C138.733 169.568 139.191 169.516 139.697 169.516H141.167ZM145.826 163.5V174H144.555V163.5H145.826ZM151.176 174.137C150.661 174.137 150.194 174.05 149.774 173.877C149.36 173.699 149.002 173.451 148.701 173.132C148.405 172.813 148.177 172.435 148.018 171.997C147.858 171.56 147.778 171.081 147.778 170.562V170.274C147.778 169.673 147.867 169.137 148.045 168.668C148.223 168.194 148.464 167.793 148.77 167.465C149.075 167.137 149.421 166.888 149.809 166.72C150.196 166.551 150.597 166.467 151.012 166.467C151.54 166.467 151.996 166.558 152.379 166.74C152.766 166.923 153.083 167.178 153.329 167.506C153.575 167.829 153.757 168.212 153.876 168.654C153.994 169.092 154.054 169.57 154.054 170.09V170.657H148.53V169.625H152.789V169.529C152.771 169.201 152.702 168.882 152.584 168.572C152.47 168.262 152.288 168.007 152.037 167.807C151.786 167.606 151.445 167.506 151.012 167.506C150.725 167.506 150.46 167.567 150.219 167.69C149.977 167.809 149.77 167.987 149.597 168.224C149.424 168.461 149.289 168.75 149.193 169.092C149.098 169.434 149.05 169.828 149.05 170.274V170.562C149.05 170.912 149.098 171.243 149.193 171.553C149.294 171.858 149.437 172.127 149.624 172.359C149.815 172.592 150.046 172.774 150.314 172.906C150.588 173.038 150.898 173.104 151.244 173.104C151.691 173.104 152.069 173.013 152.379 172.831C152.689 172.649 152.96 172.405 153.192 172.1L153.958 172.708C153.799 172.95 153.596 173.18 153.35 173.398C153.104 173.617 152.8 173.795 152.44 173.932C152.085 174.068 151.663 174.137 151.176 174.137ZM157.045 168.183V174H155.78V166.604H156.977L157.045 168.183ZM156.744 170.021L156.218 170.001C156.222 169.495 156.298 169.028 156.443 168.6C156.589 168.167 156.794 167.791 157.059 167.472C157.323 167.153 157.637 166.907 158.002 166.733C158.371 166.556 158.779 166.467 159.226 166.467C159.59 166.467 159.918 166.517 160.21 166.617C160.502 166.713 160.75 166.868 160.955 167.082C161.165 167.296 161.324 167.574 161.434 167.916C161.543 168.253 161.598 168.666 161.598 169.153V174H160.326V169.14C160.326 168.752 160.269 168.442 160.155 168.21C160.041 167.973 159.875 167.802 159.656 167.697C159.438 167.588 159.169 167.533 158.85 167.533C158.535 167.533 158.248 167.599 157.988 167.731C157.733 167.864 157.512 168.046 157.325 168.278C157.143 168.511 156.999 168.777 156.895 169.078C156.794 169.374 156.744 169.689 156.744 170.021ZM166.865 166.604V167.574H162.866V166.604H166.865ZM164.22 164.806H165.484V172.168C165.484 172.419 165.523 172.608 165.601 172.735C165.678 172.863 165.778 172.947 165.901 172.988C166.024 173.029 166.157 173.05 166.298 173.05C166.403 173.05 166.512 173.041 166.626 173.022C166.744 173 166.833 172.981 166.893 172.968L166.899 174C166.799 174.032 166.667 174.062 166.503 174.089C166.343 174.121 166.15 174.137 165.922 174.137C165.612 174.137 165.327 174.075 165.067 173.952C164.808 173.829 164.6 173.624 164.445 173.337C164.295 173.045 164.22 172.653 164.22 172.161V164.806ZM168.127 170.384V170.227C168.127 169.693 168.204 169.199 168.359 168.743C168.514 168.283 168.738 167.884 169.029 167.547C169.321 167.205 169.674 166.941 170.089 166.754C170.504 166.562 170.968 166.467 171.483 166.467C172.003 166.467 172.47 166.562 172.885 166.754C173.304 166.941 173.66 167.205 173.951 167.547C174.247 167.884 174.473 168.283 174.628 168.743C174.783 169.199 174.86 169.693 174.86 170.227V170.384C174.86 170.917 174.783 171.411 174.628 171.867C174.473 172.323 174.247 172.722 173.951 173.063C173.66 173.401 173.306 173.665 172.892 173.856C172.481 174.043 172.017 174.137 171.497 174.137C170.978 174.137 170.51 174.043 170.096 173.856C169.681 173.665 169.326 173.401 169.029 173.063C168.738 172.722 168.514 172.323 168.359 171.867C168.204 171.411 168.127 170.917 168.127 170.384ZM169.392 170.227V170.384C169.392 170.753 169.435 171.102 169.521 171.43C169.608 171.753 169.738 172.04 169.911 172.291C170.089 172.542 170.31 172.74 170.574 172.886C170.839 173.027 171.146 173.098 171.497 173.098C171.843 173.098 172.146 173.027 172.406 172.886C172.671 172.74 172.889 172.542 173.062 172.291C173.236 172.04 173.366 171.753 173.452 171.43C173.543 171.102 173.589 170.753 173.589 170.384V170.227C173.589 169.862 173.543 169.518 173.452 169.194C173.366 168.866 173.233 168.577 173.056 168.326C172.882 168.071 172.664 167.87 172.399 167.725C172.14 167.579 171.834 167.506 171.483 167.506C171.137 167.506 170.832 167.579 170.567 167.725C170.308 167.87 170.089 168.071 169.911 168.326C169.738 168.577 169.608 168.866 169.521 169.194C169.435 169.518 169.392 169.862 169.392 170.227ZM183.379 173.098C183.68 173.098 183.958 173.036 184.213 172.913C184.468 172.79 184.678 172.621 184.842 172.407C185.006 172.188 185.099 171.94 185.122 171.662H186.325C186.302 172.1 186.154 172.507 185.881 172.886C185.612 173.259 185.259 173.562 184.821 173.795C184.384 174.023 183.903 174.137 183.379 174.137C182.823 174.137 182.338 174.039 181.923 173.843C181.513 173.647 181.171 173.378 180.897 173.036C180.629 172.694 180.426 172.302 180.289 171.86C180.157 171.414 180.091 170.942 180.091 170.445V170.158C180.091 169.661 180.157 169.192 180.289 168.75C180.426 168.303 180.629 167.909 180.897 167.567C181.171 167.226 181.513 166.957 181.923 166.761C182.338 166.565 182.823 166.467 183.379 166.467C183.958 166.467 184.464 166.585 184.896 166.822C185.329 167.055 185.669 167.374 185.915 167.779C186.166 168.18 186.302 168.636 186.325 169.146H185.122C185.099 168.841 185.013 168.565 184.862 168.319C184.716 168.073 184.516 167.877 184.261 167.731C184.01 167.581 183.716 167.506 183.379 167.506C182.992 167.506 182.666 167.583 182.401 167.738C182.142 167.889 181.934 168.094 181.779 168.354C181.629 168.609 181.52 168.894 181.451 169.208C181.387 169.518 181.355 169.835 181.355 170.158V170.445C181.355 170.769 181.387 171.088 181.451 171.402C181.515 171.717 181.622 172.002 181.772 172.257C181.927 172.512 182.135 172.717 182.395 172.872C182.659 173.022 182.987 173.098 183.379 173.098ZM187.662 170.384V170.227C187.662 169.693 187.74 169.199 187.895 168.743C188.049 168.283 188.273 167.884 188.564 167.547C188.856 167.205 189.209 166.941 189.624 166.754C190.039 166.562 190.504 166.467 191.019 166.467C191.538 166.467 192.005 166.562 192.42 166.754C192.839 166.941 193.195 167.205 193.486 167.547C193.783 167.884 194.008 168.283 194.163 168.743C194.318 169.199 194.396 169.693 194.396 170.227V170.384C194.396 170.917 194.318 171.411 194.163 171.867C194.008 172.323 193.783 172.722 193.486 173.063C193.195 173.401 192.841 173.665 192.427 173.856C192.017 174.043 191.552 174.137 191.032 174.137C190.513 174.137 190.046 174.043 189.631 173.856C189.216 173.665 188.861 173.401 188.564 173.063C188.273 172.722 188.049 172.323 187.895 171.867C187.74 171.411 187.662 170.917 187.662 170.384ZM188.927 170.227V170.384C188.927 170.753 188.97 171.102 189.057 171.43C189.143 171.753 189.273 172.04 189.446 172.291C189.624 172.542 189.845 172.74 190.109 172.886C190.374 173.027 190.681 173.098 191.032 173.098C191.379 173.098 191.682 173.027 191.941 172.886C192.206 172.74 192.424 172.542 192.598 172.291C192.771 172.04 192.901 171.753 192.987 171.43C193.078 171.102 193.124 170.753 193.124 170.384V170.227C193.124 169.862 193.078 169.518 192.987 169.194C192.901 168.866 192.769 168.577 192.591 168.326C192.418 168.071 192.199 167.87 191.935 167.725C191.675 167.579 191.369 167.506 191.019 167.506C190.672 167.506 190.367 167.579 190.103 167.725C189.843 167.87 189.624 168.071 189.446 168.326C189.273 168.577 189.143 168.866 189.057 169.194C188.97 169.518 188.927 169.862 188.927 170.227ZM197.489 168.073V174H196.218V166.604H197.421L197.489 168.073ZM197.229 170.021L196.642 170.001C196.646 169.495 196.712 169.028 196.84 168.6C196.967 168.167 197.157 167.791 197.407 167.472C197.658 167.153 197.97 166.907 198.344 166.733C198.717 166.556 199.15 166.467 199.643 166.467C199.989 166.467 200.308 166.517 200.6 166.617C200.891 166.713 201.144 166.866 201.358 167.075C201.573 167.285 201.739 167.554 201.857 167.882C201.976 168.21 202.035 168.606 202.035 169.071V174H200.771V169.133C200.771 168.745 200.704 168.436 200.572 168.203C200.445 167.971 200.262 167.802 200.025 167.697C199.788 167.588 199.51 167.533 199.191 167.533C198.818 167.533 198.506 167.599 198.255 167.731C198.004 167.864 197.804 168.046 197.653 168.278C197.503 168.511 197.394 168.777 197.325 169.078C197.261 169.374 197.229 169.689 197.229 170.021ZM202.021 169.324L201.174 169.584C201.178 169.178 201.244 168.789 201.372 168.415C201.504 168.041 201.693 167.709 201.939 167.417C202.19 167.125 202.498 166.895 202.862 166.727C203.227 166.553 203.644 166.467 204.113 166.467C204.51 166.467 204.861 166.519 205.166 166.624C205.476 166.729 205.736 166.891 205.945 167.109C206.16 167.324 206.321 167.599 206.431 167.937C206.54 168.274 206.595 168.675 206.595 169.14V174H205.323V169.126C205.323 168.711 205.257 168.39 205.125 168.162C204.997 167.93 204.815 167.768 204.578 167.677C204.346 167.581 204.068 167.533 203.744 167.533C203.466 167.533 203.22 167.581 203.006 167.677C202.792 167.772 202.612 167.905 202.466 168.073C202.32 168.237 202.208 168.426 202.131 168.641C202.058 168.855 202.021 169.083 202.021 169.324ZM213.739 168.073V174H212.468V166.604H213.671L213.739 168.073ZM213.479 170.021L212.892 170.001C212.896 169.495 212.962 169.028 213.09 168.6C213.217 168.167 213.407 167.791 213.657 167.472C213.908 167.153 214.22 166.907 214.594 166.733C214.967 166.556 215.4 166.467 215.893 166.467C216.239 166.467 216.558 166.517 216.85 166.617C217.141 166.713 217.394 166.866 217.608 167.075C217.823 167.285 217.989 167.554 218.107 167.882C218.226 168.21 218.285 168.606 218.285 169.071V174H217.021V169.133C217.021 168.745 216.954 168.436 216.822 168.203C216.695 167.971 216.512 167.802 216.275 167.697C216.038 167.588 215.76 167.533 215.441 167.533C215.068 167.533 214.756 167.599 214.505 167.731C214.254 167.864 214.054 168.046 213.903 168.278C213.753 168.511 213.644 168.777 213.575 169.078C213.511 169.374 213.479 169.689 213.479 170.021ZM218.271 169.324L217.424 169.584C217.428 169.178 217.494 168.789 217.622 168.415C217.754 168.041 217.943 167.709 218.189 167.417C218.44 167.125 218.748 166.895 219.112 166.727C219.477 166.553 219.894 166.467 220.363 166.467C220.76 166.467 221.111 166.519 221.416 166.624C221.726 166.729 221.986 166.891 222.195 167.109C222.41 167.324 222.571 167.599 222.681 167.937C222.79 168.274 222.845 168.675 222.845 169.14V174H221.573V169.126C221.573 168.711 221.507 168.39 221.375 168.162C221.247 167.93 221.065 167.768 220.828 167.677C220.596 167.581 220.318 167.533 219.994 167.533C219.716 167.533 219.47 167.581 219.256 167.677C219.042 167.772 218.862 167.905 218.716 168.073C218.57 168.237 218.458 168.426 218.381 168.641C218.308 168.855 218.271 169.083 218.271 169.324ZM226.383 166.604V174H225.111V166.604H226.383ZM225.016 164.642C225.016 164.437 225.077 164.263 225.2 164.122C225.328 163.981 225.515 163.91 225.761 163.91C226.002 163.91 226.187 163.981 226.314 164.122C226.447 164.263 226.513 164.437 226.513 164.642C226.513 164.838 226.447 165.006 226.314 165.147C226.187 165.284 226.002 165.353 225.761 165.353C225.515 165.353 225.328 165.284 225.2 165.147C225.077 165.006 225.016 164.838 225.016 164.642ZM230.037 163.5V174H228.766V163.5H230.037ZM233.582 163.5V174H232.317V163.5H233.582ZM233.281 170.021L232.755 170.001C232.759 169.495 232.835 169.028 232.98 168.6C233.126 168.167 233.331 167.791 233.596 167.472C233.86 167.153 234.174 166.907 234.539 166.733C234.908 166.556 235.316 166.467 235.763 166.467C236.127 166.467 236.455 166.517 236.747 166.617C237.039 166.713 237.287 166.868 237.492 167.082C237.702 167.296 237.861 167.574 237.971 167.916C238.08 168.253 238.135 168.666 238.135 169.153V174H236.863V169.14C236.863 168.752 236.806 168.442 236.692 168.21C236.578 167.973 236.412 167.802 236.193 167.697C235.975 167.588 235.706 167.533 235.387 167.533C235.072 167.533 234.785 167.599 234.525 167.731C234.27 167.864 234.049 168.046 233.862 168.278C233.68 168.511 233.536 168.777 233.432 169.078C233.331 169.374 233.281 169.689 233.281 170.021ZM244.64 172.735V168.928C244.64 168.636 244.58 168.383 244.462 168.169C244.348 167.95 244.175 167.782 243.942 167.663C243.71 167.545 243.423 167.485 243.081 167.485C242.762 167.485 242.482 167.54 242.24 167.649C242.003 167.759 241.816 167.902 241.68 168.08C241.548 168.258 241.481 168.449 241.481 168.654H240.217C240.217 168.39 240.285 168.128 240.422 167.868C240.559 167.608 240.755 167.374 241.01 167.164C241.27 166.95 241.579 166.781 241.939 166.658C242.304 166.531 242.71 166.467 243.156 166.467C243.694 166.467 244.168 166.558 244.578 166.74C244.993 166.923 245.316 167.198 245.549 167.567C245.786 167.932 245.904 168.39 245.904 168.941V172.387C245.904 172.633 245.925 172.895 245.966 173.173C246.011 173.451 246.077 173.69 246.164 173.891V174H244.845C244.781 173.854 244.731 173.66 244.694 173.419C244.658 173.173 244.64 172.945 244.64 172.735ZM244.858 169.516L244.872 170.404H243.594C243.234 170.404 242.912 170.434 242.63 170.493C242.347 170.548 242.11 170.632 241.919 170.746C241.728 170.86 241.582 171.004 241.481 171.177C241.381 171.345 241.331 171.544 241.331 171.771C241.331 172.004 241.383 172.216 241.488 172.407C241.593 172.599 241.75 172.751 241.96 172.865C242.174 172.975 242.436 173.029 242.746 173.029C243.133 173.029 243.475 172.947 243.771 172.783C244.068 172.619 244.302 172.419 244.476 172.182C244.653 171.945 244.749 171.715 244.763 171.491L245.303 172.1C245.271 172.291 245.184 172.503 245.043 172.735C244.902 172.968 244.713 173.191 244.476 173.405C244.243 173.615 243.965 173.79 243.642 173.932C243.323 174.068 242.963 174.137 242.562 174.137C242.06 174.137 241.62 174.039 241.242 173.843C240.868 173.647 240.577 173.385 240.367 173.057C240.162 172.724 240.06 172.353 240.06 171.942C240.06 171.546 240.137 171.197 240.292 170.896C240.447 170.591 240.67 170.338 240.962 170.138C241.254 169.933 241.604 169.778 242.015 169.673C242.425 169.568 242.883 169.516 243.389 169.516H244.858ZM249.408 167.766V174H248.144V166.604H249.374L249.408 167.766ZM251.719 166.562L251.712 167.738C251.607 167.715 251.507 167.702 251.411 167.697C251.32 167.688 251.215 167.684 251.097 167.684C250.805 167.684 250.548 167.729 250.324 167.82C250.101 167.911 249.912 168.039 249.757 168.203C249.602 168.367 249.479 168.563 249.388 168.791C249.301 169.014 249.244 169.26 249.217 169.529L248.861 169.734C248.861 169.288 248.905 168.868 248.991 168.477C249.082 168.085 249.221 167.738 249.408 167.438C249.595 167.132 249.832 166.895 250.119 166.727C250.411 166.553 250.757 166.467 251.158 166.467C251.249 166.467 251.354 166.478 251.473 166.501C251.591 166.519 251.673 166.54 251.719 166.562ZM256.07 174.137C255.555 174.137 255.088 174.05 254.669 173.877C254.254 173.699 253.896 173.451 253.596 173.132C253.299 172.813 253.072 172.435 252.912 171.997C252.753 171.56 252.673 171.081 252.673 170.562V170.274C252.673 169.673 252.762 169.137 252.939 168.668C253.117 168.194 253.359 167.793 253.664 167.465C253.969 167.137 254.316 166.888 254.703 166.72C255.09 166.551 255.492 166.467 255.906 166.467C256.435 166.467 256.891 166.558 257.273 166.74C257.661 166.923 257.978 167.178 258.224 167.506C258.47 167.829 258.652 168.212 258.771 168.654C258.889 169.092 258.948 169.57 258.948 170.09V170.657H253.425V169.625H257.684V169.529C257.665 169.201 257.597 168.882 257.479 168.572C257.365 168.262 257.182 168.007 256.932 167.807C256.681 167.606 256.339 167.506 255.906 167.506C255.619 167.506 255.355 167.567 255.113 167.69C254.872 167.809 254.664 167.987 254.491 168.224C254.318 168.461 254.184 168.75 254.088 169.092C253.992 169.434 253.944 169.828 253.944 170.274V170.562C253.944 170.912 253.992 171.243 254.088 171.553C254.188 171.858 254.332 172.127 254.519 172.359C254.71 172.592 254.94 172.774 255.209 172.906C255.482 173.038 255.792 173.104 256.139 173.104C256.585 173.104 256.964 173.013 257.273 172.831C257.583 172.649 257.854 172.405 258.087 172.1L258.853 172.708C258.693 172.95 258.49 173.18 258.244 173.398C257.998 173.617 257.695 173.795 257.335 173.932C256.979 174.068 256.558 174.137 256.07 174.137ZM264.981 172.038C264.981 171.856 264.94 171.687 264.858 171.532C264.781 171.373 264.619 171.229 264.373 171.102C264.132 170.969 263.767 170.855 263.279 170.76C262.869 170.673 262.498 170.571 262.165 170.452C261.837 170.334 261.557 170.19 261.324 170.021C261.096 169.853 260.921 169.655 260.798 169.427C260.675 169.199 260.613 168.932 260.613 168.627C260.613 168.335 260.677 168.06 260.805 167.8C260.937 167.54 261.121 167.31 261.358 167.109C261.6 166.909 261.889 166.752 262.227 166.638C262.564 166.524 262.94 166.467 263.354 166.467C263.947 166.467 264.453 166.572 264.872 166.781C265.291 166.991 265.613 167.271 265.836 167.622C266.059 167.968 266.171 168.354 266.171 168.777H264.906C264.906 168.572 264.845 168.374 264.722 168.183C264.603 167.987 264.428 167.825 264.195 167.697C263.967 167.57 263.687 167.506 263.354 167.506C263.004 167.506 262.719 167.561 262.5 167.67C262.286 167.775 262.129 167.909 262.028 168.073C261.933 168.237 261.885 168.41 261.885 168.593C261.885 168.729 261.908 168.853 261.953 168.962C262.003 169.067 262.09 169.165 262.213 169.256C262.336 169.342 262.509 169.424 262.732 169.502C262.956 169.579 263.241 169.657 263.587 169.734C264.193 169.871 264.692 170.035 265.084 170.227C265.476 170.418 265.768 170.653 265.959 170.931C266.15 171.209 266.246 171.546 266.246 171.942C266.246 172.266 266.178 172.562 266.041 172.831C265.909 173.1 265.715 173.332 265.46 173.528C265.209 173.72 264.909 173.87 264.558 173.979C264.211 174.084 263.822 174.137 263.389 174.137C262.737 174.137 262.186 174.021 261.734 173.788C261.283 173.556 260.941 173.255 260.709 172.886C260.477 172.517 260.36 172.127 260.36 171.717H261.632C261.65 172.063 261.75 172.339 261.933 172.544C262.115 172.744 262.338 172.888 262.603 172.975C262.867 173.057 263.129 173.098 263.389 173.098C263.735 173.098 264.024 173.052 264.257 172.961C264.494 172.87 264.674 172.744 264.797 172.585C264.92 172.425 264.981 172.243 264.981 172.038ZM276.542 172.564V163.5H277.813V174H276.651L276.542 172.564ZM271.565 170.384V170.24C271.565 169.675 271.634 169.162 271.771 168.702C271.912 168.237 272.11 167.839 272.365 167.506C272.625 167.173 272.933 166.918 273.288 166.74C273.648 166.558 274.049 166.467 274.491 166.467C274.956 166.467 275.362 166.549 275.708 166.713C276.059 166.872 276.355 167.107 276.597 167.417C276.843 167.722 277.036 168.091 277.178 168.524C277.319 168.957 277.417 169.447 277.472 169.994V170.623C277.422 171.165 277.324 171.653 277.178 172.086C277.036 172.519 276.843 172.888 276.597 173.193C276.355 173.499 276.059 173.733 275.708 173.897C275.357 174.057 274.947 174.137 274.478 174.137C274.045 174.137 273.648 174.043 273.288 173.856C272.933 173.67 272.625 173.408 272.365 173.07C272.11 172.733 271.912 172.337 271.771 171.881C271.634 171.421 271.565 170.922 271.565 170.384ZM272.837 170.24V170.384C272.837 170.753 272.873 171.099 272.946 171.423C273.024 171.746 273.142 172.031 273.302 172.277C273.461 172.523 273.664 172.717 273.91 172.858C274.156 172.995 274.45 173.063 274.792 173.063C275.211 173.063 275.555 172.975 275.824 172.797C276.098 172.619 276.316 172.384 276.48 172.093C276.645 171.801 276.772 171.484 276.863 171.143V169.495C276.809 169.244 276.729 169.003 276.624 168.771C276.524 168.534 276.392 168.324 276.228 168.142C276.068 167.955 275.87 167.807 275.633 167.697C275.4 167.588 275.125 167.533 274.806 167.533C274.459 167.533 274.161 167.606 273.91 167.752C273.664 167.893 273.461 168.089 273.302 168.34C273.142 168.586 273.024 168.873 272.946 169.201C272.873 169.525 272.837 169.871 272.837 170.24ZM283.102 174.137C282.587 174.137 282.119 174.05 281.7 173.877C281.285 173.699 280.928 173.451 280.627 173.132C280.331 172.813 280.103 172.435 279.943 171.997C279.784 171.56 279.704 171.081 279.704 170.562V170.274C279.704 169.673 279.793 169.137 279.971 168.668C280.148 168.194 280.39 167.793 280.695 167.465C281.001 167.137 281.347 166.888 281.734 166.72C282.122 166.551 282.523 166.467 282.938 166.467C283.466 166.467 283.922 166.558 284.305 166.74C284.692 166.923 285.009 167.178 285.255 167.506C285.501 167.829 285.683 168.212 285.802 168.654C285.92 169.092 285.979 169.57 285.979 170.09V170.657H280.456V169.625H284.715V169.529C284.697 169.201 284.628 168.882 284.51 168.572C284.396 168.262 284.214 168.007 283.963 167.807C283.712 167.606 283.37 167.506 282.938 167.506C282.65 167.506 282.386 167.567 282.145 167.69C281.903 167.809 281.696 167.987 281.522 168.224C281.349 168.461 281.215 168.75 281.119 169.092C281.023 169.434 280.976 169.828 280.976 170.274V170.562C280.976 170.912 281.023 171.243 281.119 171.553C281.219 171.858 281.363 172.127 281.55 172.359C281.741 172.592 281.971 172.774 282.24 172.906C282.514 173.038 282.824 173.104 283.17 173.104C283.617 173.104 283.995 173.013 284.305 172.831C284.615 172.649 284.886 172.405 285.118 172.1L285.884 172.708C285.724 172.95 285.521 173.18 285.275 173.398C285.029 173.617 284.726 173.795 284.366 173.932C284.011 174.068 283.589 174.137 283.102 174.137ZM23.2285 182.025V190.844H21.957V180.604H23.1191L23.2285 182.025ZM28.2119 184.24V184.384C28.2119 184.922 28.1481 185.421 28.0205 185.881C27.8929 186.337 27.7061 186.733 27.46 187.07C27.2184 187.408 26.9199 187.67 26.5645 187.856C26.209 188.043 25.8011 188.137 25.3408 188.137C24.8714 188.137 24.4567 188.059 24.0967 187.904C23.7367 187.749 23.4313 187.524 23.1807 187.228C22.93 186.931 22.7295 186.576 22.5791 186.161C22.4333 185.746 22.333 185.279 22.2783 184.76V183.994C22.333 183.447 22.4355 182.957 22.5859 182.524C22.7363 182.091 22.9346 181.722 23.1807 181.417C23.4313 181.107 23.7344 180.872 24.0898 180.713C24.4453 180.549 24.8555 180.467 25.3203 180.467C25.7852 180.467 26.1976 180.558 26.5576 180.74C26.9176 180.918 27.2207 181.173 27.4668 181.506C27.7129 181.839 27.8975 182.237 28.0205 182.702C28.1481 183.162 28.2119 183.675 28.2119 184.24ZM26.9404 184.384V184.24C26.9404 183.871 26.9017 183.525 26.8242 183.201C26.7467 182.873 26.626 182.586 26.4619 182.34C26.3024 182.089 26.0973 181.893 25.8467 181.752C25.596 181.606 25.2975 181.533 24.9512 181.533C24.6322 181.533 24.3542 181.588 24.1172 181.697C23.8848 181.807 23.6865 181.955 23.5225 182.142C23.3584 182.324 23.224 182.534 23.1191 182.771C23.0189 183.003 22.9437 183.244 22.8936 183.495V185.266C22.9847 185.585 23.1123 185.885 23.2764 186.168C23.4404 186.446 23.6592 186.672 23.9326 186.845C24.2061 187.013 24.5501 187.098 24.9648 187.098C25.3066 187.098 25.6006 187.027 25.8467 186.886C26.0973 186.74 26.3024 186.542 26.4619 186.291C26.626 186.04 26.7467 185.753 26.8242 185.43C26.9017 185.102 26.9404 184.753 26.9404 184.384ZM33.1445 188.137C32.6296 188.137 32.1624 188.05 31.7432 187.877C31.3285 187.699 30.9707 187.451 30.6699 187.132C30.3737 186.813 30.1458 186.435 29.9863 185.997C29.8268 185.56 29.7471 185.081 29.7471 184.562V184.274C29.7471 183.673 29.8359 183.137 30.0137 182.668C30.1914 182.194 30.4329 181.793 30.7383 181.465C31.0436 181.137 31.39 180.888 31.7773 180.72C32.1647 180.551 32.5658 180.467 32.9805 180.467C33.5091 180.467 33.9648 180.558 34.3477 180.74C34.735 180.923 35.0518 181.178 35.2979 181.506C35.5439 181.829 35.7262 182.212 35.8447 182.654C35.9632 183.092 36.0225 183.57 36.0225 184.09V184.657H30.499V183.625H34.7578V183.529C34.7396 183.201 34.6712 182.882 34.5527 182.572C34.4388 182.262 34.2565 182.007 34.0059 181.807C33.7552 181.606 33.4134 181.506 32.9805 181.506C32.6934 181.506 32.429 181.567 32.1875 181.69C31.946 181.809 31.7386 181.987 31.5654 182.224C31.3923 182.461 31.2578 182.75 31.1621 183.092C31.0664 183.434 31.0186 183.828 31.0186 184.274V184.562C31.0186 184.912 31.0664 185.243 31.1621 185.553C31.2624 185.858 31.4059 186.127 31.5928 186.359C31.7842 186.592 32.0143 186.774 32.2832 186.906C32.5566 187.038 32.8665 187.104 33.2129 187.104C33.6595 187.104 34.0378 187.013 34.3477 186.831C34.6576 186.649 34.9287 186.405 35.1611 186.1L35.9268 186.708C35.7673 186.95 35.5645 187.18 35.3184 187.398C35.0723 187.617 34.7692 187.795 34.4092 187.932C34.0537 188.068 33.6322 188.137 33.1445 188.137ZM42.0557 186.038C42.0557 185.856 42.0146 185.687 41.9326 185.532C41.8551 185.373 41.6934 185.229 41.4473 185.102C41.2057 184.969 40.8411 184.855 40.3535 184.76C39.9434 184.673 39.5719 184.571 39.2393 184.452C38.9111 184.334 38.6309 184.19 38.3984 184.021C38.1706 183.853 37.9951 183.655 37.8721 183.427C37.749 183.199 37.6875 182.932 37.6875 182.627C37.6875 182.335 37.7513 182.06 37.8789 181.8C38.0111 181.54 38.1956 181.31 38.4326 181.109C38.6742 180.909 38.9635 180.752 39.3008 180.638C39.638 180.524 40.014 180.467 40.4287 180.467C41.0212 180.467 41.527 180.572 41.9463 180.781C42.3656 180.991 42.6868 181.271 42.9102 181.622C43.1335 181.968 43.2451 182.354 43.2451 182.777H41.9805C41.9805 182.572 41.9189 182.374 41.7959 182.183C41.6774 181.987 41.502 181.825 41.2695 181.697C41.0417 181.57 40.7614 181.506 40.4287 181.506C40.0778 181.506 39.793 181.561 39.5742 181.67C39.36 181.775 39.2028 181.909 39.1025 182.073C39.0068 182.237 38.959 182.41 38.959 182.593C38.959 182.729 38.9818 182.853 39.0273 182.962C39.0775 183.067 39.1641 183.165 39.2871 183.256C39.4102 183.342 39.5833 183.424 39.8066 183.502C40.0299 183.579 40.3148 183.657 40.6611 183.734C41.2673 183.871 41.7663 184.035 42.1582 184.227C42.5501 184.418 42.8418 184.653 43.0332 184.931C43.2246 185.209 43.3203 185.546 43.3203 185.942C43.3203 186.266 43.252 186.562 43.1152 186.831C42.9831 187.1 42.7894 187.332 42.5342 187.528C42.2835 187.72 41.9827 187.87 41.6318 187.979C41.2855 188.084 40.8958 188.137 40.4629 188.137C39.8112 188.137 39.2598 188.021 38.8086 187.788C38.3574 187.556 38.0156 187.255 37.7832 186.886C37.5508 186.517 37.4346 186.127 37.4346 185.717H38.7061C38.7243 186.063 38.8245 186.339 39.0068 186.544C39.1891 186.744 39.4124 186.888 39.6768 186.975C39.9411 187.057 40.2031 187.098 40.4629 187.098C40.8092 187.098 41.0986 187.052 41.3311 186.961C41.568 186.87 41.748 186.744 41.8711 186.585C41.9941 186.425 42.0557 186.243 42.0557 186.038ZM49.5381 186.038C49.5381 185.856 49.4971 185.687 49.415 185.532C49.3376 185.373 49.1758 185.229 48.9297 185.102C48.6882 184.969 48.3236 184.855 47.8359 184.76C47.4258 184.673 47.0544 184.571 46.7217 184.452C46.3936 184.334 46.1133 184.19 45.8809 184.021C45.653 183.853 45.4775 183.655 45.3545 183.427C45.2314 183.199 45.1699 182.932 45.1699 182.627C45.1699 182.335 45.2337 182.06 45.3613 181.8C45.4935 181.54 45.6781 181.31 45.915 181.109C46.1566 180.909 46.446 180.752 46.7832 180.638C47.1204 180.524 47.4964 180.467 47.9111 180.467C48.5036 180.467 49.0094 180.572 49.4287 180.781C49.848 180.991 50.1693 181.271 50.3926 181.622C50.6159 181.968 50.7275 182.354 50.7275 182.777H49.4629C49.4629 182.572 49.4014 182.374 49.2783 182.183C49.1598 181.987 48.9844 181.825 48.752 181.697C48.5241 181.57 48.2438 181.506 47.9111 181.506C47.5602 181.506 47.2754 181.561 47.0566 181.67C46.8424 181.775 46.6852 181.909 46.585 182.073C46.4893 182.237 46.4414 182.41 46.4414 182.593C46.4414 182.729 46.4642 182.853 46.5098 182.962C46.5599 183.067 46.6465 183.165 46.7695 183.256C46.8926 183.342 47.0658 183.424 47.2891 183.502C47.5124 183.579 47.7972 183.657 48.1436 183.734C48.7497 183.871 49.2487 184.035 49.6406 184.227C50.0326 184.418 50.3242 184.653 50.5156 184.931C50.707 185.209 50.8027 185.546 50.8027 185.942C50.8027 186.266 50.7344 186.562 50.5977 186.831C50.4655 187.1 50.2718 187.332 50.0166 187.528C49.766 187.72 49.4652 187.87 49.1143 187.979C48.7679 188.084 48.3783 188.137 47.9453 188.137C47.2936 188.137 46.7422 188.021 46.291 187.788C45.8398 187.556 45.498 187.255 45.2656 186.886C45.0332 186.517 44.917 186.127 44.917 185.717H46.1885C46.2067 186.063 46.307 186.339 46.4893 186.544C46.6715 186.744 46.8949 186.888 47.1592 186.975C47.4235 187.057 47.6855 187.098 47.9453 187.098C48.2917 187.098 48.5811 187.052 48.8135 186.961C49.0505 186.87 49.2305 186.744 49.3535 186.585C49.4766 186.425 49.5381 186.243 49.5381 186.038ZM52.3789 184.384V184.227C52.3789 183.693 52.4564 183.199 52.6113 182.743C52.7663 182.283 52.9896 181.884 53.2812 181.547C53.5729 181.205 53.9261 180.941 54.3408 180.754C54.7555 180.562 55.2204 180.467 55.7354 180.467C56.2549 180.467 56.722 180.562 57.1367 180.754C57.556 180.941 57.9115 181.205 58.2031 181.547C58.4993 181.884 58.7249 182.283 58.8799 182.743C59.0348 183.199 59.1123 183.693 59.1123 184.227V184.384C59.1123 184.917 59.0348 185.411 58.8799 185.867C58.7249 186.323 58.4993 186.722 58.2031 187.063C57.9115 187.401 57.5583 187.665 57.1436 187.856C56.7334 188.043 56.2686 188.137 55.749 188.137C55.2295 188.137 54.7624 188.043 54.3477 187.856C53.9329 187.665 53.5775 187.401 53.2812 187.063C52.9896 186.722 52.7663 186.323 52.6113 185.867C52.4564 185.411 52.3789 184.917 52.3789 184.384ZM53.6436 184.227V184.384C53.6436 184.753 53.6868 185.102 53.7734 185.43C53.86 185.753 53.9899 186.04 54.1631 186.291C54.3408 186.542 54.5618 186.74 54.8262 186.886C55.0905 187.027 55.3981 187.098 55.749 187.098C56.0954 187.098 56.3984 187.027 56.6582 186.886C56.9225 186.74 57.1413 186.542 57.3145 186.291C57.4876 186.04 57.6175 185.753 57.7041 185.43C57.7952 185.102 57.8408 184.753 57.8408 184.384V184.227C57.8408 183.862 57.7952 183.518 57.7041 183.194C57.6175 182.866 57.4854 182.577 57.3076 182.326C57.1344 182.071 56.9157 181.87 56.6514 181.725C56.3916 181.579 56.0863 181.506 55.7354 181.506C55.389 181.506 55.0837 181.579 54.8193 181.725C54.5596 181.87 54.3408 182.071 54.1631 182.326C53.9899 182.577 53.86 182.866 53.7734 183.194C53.6868 183.518 53.6436 183.862 53.6436 184.227ZM65.3096 186.735V182.928C65.3096 182.636 65.2503 182.383 65.1318 182.169C65.0179 181.95 64.8447 181.782 64.6123 181.663C64.3799 181.545 64.0928 181.485 63.751 181.485C63.432 181.485 63.1517 181.54 62.9102 181.649C62.6732 181.759 62.4863 181.902 62.3496 182.08C62.2174 182.258 62.1514 182.449 62.1514 182.654H60.8867C60.8867 182.39 60.9551 182.128 61.0918 181.868C61.2285 181.608 61.4245 181.374 61.6797 181.164C61.9395 180.95 62.2493 180.781 62.6094 180.658C62.974 180.531 63.3796 180.467 63.8262 180.467C64.3639 180.467 64.8379 180.558 65.248 180.74C65.6628 180.923 65.9863 181.198 66.2188 181.567C66.4557 181.932 66.5742 182.39 66.5742 182.941V186.387C66.5742 186.633 66.5947 186.895 66.6357 187.173C66.6813 187.451 66.7474 187.69 66.834 187.891V188H65.5146C65.4508 187.854 65.4007 187.66 65.3643 187.419C65.3278 187.173 65.3096 186.945 65.3096 186.735ZM65.5283 183.516L65.542 184.404H64.2637C63.9036 184.404 63.5824 184.434 63.2998 184.493C63.0173 184.548 62.7803 184.632 62.5889 184.746C62.3975 184.86 62.2516 185.004 62.1514 185.177C62.0511 185.345 62.001 185.544 62.001 185.771C62.001 186.004 62.0534 186.216 62.1582 186.407C62.263 186.599 62.4202 186.751 62.6299 186.865C62.8441 186.975 63.1061 187.029 63.416 187.029C63.8034 187.029 64.1452 186.947 64.4414 186.783C64.7376 186.619 64.9723 186.419 65.1455 186.182C65.3232 185.945 65.4189 185.715 65.4326 185.491L65.9727 186.1C65.9408 186.291 65.8542 186.503 65.7129 186.735C65.5716 186.968 65.3825 187.191 65.1455 187.405C64.9131 187.615 64.6351 187.79 64.3115 187.932C63.9925 188.068 63.6325 188.137 63.2314 188.137C62.7301 188.137 62.2904 188.039 61.9121 187.843C61.5384 187.647 61.2467 187.385 61.0371 187.057C60.832 186.724 60.7295 186.353 60.7295 185.942C60.7295 185.546 60.807 185.197 60.9619 184.896C61.1169 184.591 61.3402 184.338 61.6318 184.138C61.9235 183.933 62.2744 183.778 62.6846 183.673C63.0947 183.568 63.5527 183.516 64.0586 183.516H65.5283ZM73.1201 186.038C73.1201 185.856 73.0791 185.687 72.9971 185.532C72.9196 185.373 72.7578 185.229 72.5117 185.102C72.2702 184.969 71.9056 184.855 71.418 184.76C71.0078 184.673 70.6364 184.571 70.3037 184.452C69.9756 184.334 69.6953 184.19 69.4629 184.021C69.235 183.853 69.0596 183.655 68.9365 183.427C68.8135 183.199 68.752 182.932 68.752 182.627C68.752 182.335 68.8158 182.06 68.9434 181.8C69.0755 181.54 69.2601 181.31 69.4971 181.109C69.7386 180.909 70.028 180.752 70.3652 180.638C70.7025 180.524 71.0785 180.467 71.4932 180.467C72.0856 180.467 72.5915 180.572 73.0107 180.781C73.43 180.991 73.7513 181.271 73.9746 181.622C74.1979 181.968 74.3096 182.354 74.3096 182.777H73.0449C73.0449 182.572 72.9834 182.374 72.8604 182.183C72.7419 181.987 72.5664 181.825 72.334 181.697C72.1061 181.57 71.8258 181.506 71.4932 181.506C71.1423 181.506 70.8574 181.561 70.6387 181.67C70.4245 181.775 70.2673 181.909 70.167 182.073C70.0713 182.237 70.0234 182.41 70.0234 182.593C70.0234 182.729 70.0462 182.853 70.0918 182.962C70.1419 183.067 70.2285 183.165 70.3516 183.256C70.4746 183.342 70.6478 183.424 70.8711 183.502C71.0944 183.579 71.3792 183.657 71.7256 183.734C72.3317 183.871 72.8307 184.035 73.2227 184.227C73.6146 184.418 73.9062 184.653 74.0977 184.931C74.2891 185.209 74.3848 185.546 74.3848 185.942C74.3848 186.266 74.3164 186.562 74.1797 186.831C74.0475 187.1 73.8538 187.332 73.5986 187.528C73.348 187.72 73.0472 187.87 72.6963 187.979C72.3499 188.084 71.9603 188.137 71.5273 188.137C70.8757 188.137 70.3242 188.021 69.873 187.788C69.4219 187.556 69.0801 187.255 68.8477 186.886C68.6152 186.517 68.499 186.127 68.499 185.717H69.7705C69.7887 186.063 69.889 186.339 70.0713 186.544C70.2536 186.744 70.4769 186.888 70.7412 186.975C71.0055 187.057 71.2676 187.098 71.5273 187.098C71.8737 187.098 72.1631 187.052 72.3955 186.961C72.6325 186.87 72.8125 186.744 72.9355 186.585C73.0586 186.425 73.1201 186.243 73.1201 186.038Z" fill="#303133"/>
<g clip-path="url(#clip0_534_10233)">
<path d="M175.167 98.6666V75.6666C175.167 73.5583 173.442 71.8333 171.333 71.8333H148.333C146.225 71.8333 144.5 73.5583 144.5 75.6666V98.6666C144.5 100.775 146.225 102.5 148.333 102.5H171.333C173.442 102.5 175.167 100.775 175.167 98.6666ZM154.083 91L157.974 96.1941L163.667 89.0833L171.333 98.6666H148.333L154.083 91ZM136.833 79.5V106.333C136.833 108.442 138.558 110.167 140.667 110.167H167.5V106.333H140.667V79.5H136.833Z" fill="#323232"/>
</g>
<defs>
<clipPath id="clip0_534_10233">
<rect width="46" height="46" fill="white" transform="translate(133 68)"/>
</clipPath>
</defs>
</svg>
