<svg width="268" height="304" viewBox="0 0 268 304" fill="none" xmlns="http://www.w3.org/2000/svg">
<path d="M0 4C0 1.79086 1.79086 0 4 0H262C264.209 0 266 1.79086 266 4V300C266 302.209 264.209 304 262 304H4C1.79086 304 0 302.209 0 300V4Z" fill="#E6E9F2"/>
<g clip-path="url(#clip0_534_6747)">
<path d="M152.167 137.667V114.667C152.167 112.558 150.442 110.833 148.333 110.833H125.333C123.225 110.833 121.5 112.558 121.5 114.667V137.667C121.5 139.775 123.225 141.5 125.333 141.5H148.333C150.442 141.5 152.167 139.775 152.167 137.667ZM131.083 130L134.974 135.194L140.667 128.083L148.333 137.667H125.333L131.083 130ZM113.833 118.5V145.333C113.833 147.442 115.558 149.167 117.667 149.167H144.5V145.333H117.667V118.5H113.833Z" fill="#323232"/>
</g>
<path opacity="0.6" d="M15.6641 177.835H16.9766C16.9082 178.464 16.7282 179.027 16.4365 179.523C16.1449 180.02 15.7324 180.414 15.1992 180.706C14.666 180.993 14.0007 181.137 13.2031 181.137C12.6198 181.137 12.0889 181.027 11.6104 180.809C11.1364 180.59 10.7285 180.28 10.3867 179.879C10.0449 179.473 9.7806 178.988 9.59375 178.423C9.41146 177.853 9.32031 177.22 9.32031 176.522V175.531C9.32031 174.834 9.41146 174.203 9.59375 173.638C9.7806 173.068 10.0472 172.58 10.3936 172.175C10.7445 171.769 11.166 171.457 11.6582 171.238C12.1504 171.02 12.7041 170.91 13.3193 170.91C14.0713 170.91 14.707 171.051 15.2266 171.334C15.7461 171.617 16.1494 172.008 16.4365 172.51C16.7282 173.007 16.9082 173.583 16.9766 174.239H15.6641C15.6003 173.774 15.4818 173.376 15.3086 173.043C15.1354 172.706 14.8893 172.446 14.5703 172.264C14.2513 172.081 13.8343 171.99 13.3193 171.99C12.8773 171.99 12.4876 172.075 12.1504 172.243C11.8177 172.412 11.5374 172.651 11.3096 172.961C11.0863 173.271 10.9176 173.642 10.8037 174.075C10.6898 174.508 10.6328 174.989 10.6328 175.518V176.522C10.6328 177.01 10.6829 177.468 10.7832 177.896C10.888 178.325 11.0452 178.701 11.2549 179.024C11.4645 179.348 11.7311 179.603 12.0547 179.79C12.3783 179.972 12.7611 180.063 13.2031 180.063C13.7637 180.063 14.2103 179.975 14.543 179.797C14.8757 179.619 15.1263 179.364 15.2949 179.031C15.4681 178.699 15.5911 178.3 15.6641 177.835ZM18.498 177.384V177.227C18.498 176.693 18.5755 176.199 18.7305 175.743C18.8854 175.283 19.1087 174.884 19.4004 174.547C19.6921 174.205 20.0452 173.941 20.46 173.754C20.8747 173.562 21.3395 173.467 21.8545 173.467C22.374 173.467 22.8411 173.562 23.2559 173.754C23.6751 173.941 24.0306 174.205 24.3223 174.547C24.6185 174.884 24.8441 175.283 24.999 175.743C25.154 176.199 25.2314 176.693 25.2314 177.227V177.384C25.2314 177.917 25.154 178.411 24.999 178.867C24.8441 179.323 24.6185 179.722 24.3223 180.063C24.0306 180.401 23.6774 180.665 23.2627 180.856C22.8525 181.043 22.3877 181.137 21.8682 181.137C21.3486 181.137 20.8815 181.043 20.4668 180.856C20.0521 180.665 19.6966 180.401 19.4004 180.063C19.1087 179.722 18.8854 179.323 18.7305 178.867C18.5755 178.411 18.498 177.917 18.498 177.384ZM19.7627 177.227V177.384C19.7627 177.753 19.806 178.102 19.8926 178.43C19.9792 178.753 20.109 179.04 20.2822 179.291C20.46 179.542 20.681 179.74 20.9453 179.886C21.2096 180.027 21.5173 180.098 21.8682 180.098C22.2145 180.098 22.5176 180.027 22.7773 179.886C23.0417 179.74 23.2604 179.542 23.4336 179.291C23.6068 179.04 23.7367 178.753 23.8232 178.43C23.9144 178.102 23.96 177.753 23.96 177.384V177.227C23.96 176.862 23.9144 176.518 23.8232 176.194C23.7367 175.866 23.6045 175.577 23.4268 175.326C23.2536 175.071 23.0348 174.87 22.7705 174.725C22.5107 174.579 22.2054 174.506 21.8545 174.506C21.5081 174.506 21.2028 174.579 20.9385 174.725C20.6787 174.87 20.46 175.071 20.2822 175.326C20.109 175.577 19.9792 175.866 19.8926 176.194C19.806 176.518 19.7627 176.862 19.7627 177.227ZM28.3252 175.073V181H27.0537V173.604H28.2568L28.3252 175.073ZM28.0654 177.021L27.4775 177.001C27.4821 176.495 27.5482 176.028 27.6758 175.6C27.8034 175.167 27.9925 174.791 28.2432 174.472C28.4938 174.153 28.806 173.907 29.1797 173.733C29.5534 173.556 29.9863 173.467 30.4785 173.467C30.8249 173.467 31.1439 173.517 31.4355 173.617C31.7272 173.713 31.9801 173.866 32.1943 174.075C32.4085 174.285 32.5749 174.554 32.6934 174.882C32.8118 175.21 32.8711 175.606 32.8711 176.071V181H31.6064V176.133C31.6064 175.745 31.5404 175.436 31.4082 175.203C31.2806 174.971 31.0983 174.802 30.8613 174.697C30.6243 174.588 30.3464 174.533 30.0273 174.533C29.6536 174.533 29.3415 174.599 29.0908 174.731C28.8402 174.864 28.6396 175.046 28.4893 175.278C28.3389 175.511 28.2295 175.777 28.1611 176.078C28.0973 176.374 28.0654 176.689 28.0654 177.021ZM32.8574 176.324L32.0098 176.584C32.0143 176.178 32.0804 175.789 32.208 175.415C32.3402 175.041 32.5293 174.709 32.7754 174.417C33.026 174.125 33.3337 173.895 33.6982 173.727C34.0628 173.553 34.4798 173.467 34.9492 173.467C35.3457 173.467 35.6966 173.519 36.002 173.624C36.3118 173.729 36.5716 173.891 36.7812 174.109C36.9954 174.324 37.1572 174.599 37.2666 174.937C37.376 175.274 37.4307 175.675 37.4307 176.14V181H36.1592V176.126C36.1592 175.711 36.0931 175.39 35.9609 175.162C35.8333 174.93 35.651 174.768 35.4141 174.677C35.1816 174.581 34.9036 174.533 34.5801 174.533C34.3021 174.533 34.056 174.581 33.8418 174.677C33.6276 174.772 33.4476 174.905 33.3018 175.073C33.1559 175.237 33.0443 175.426 32.9668 175.641C32.8939 175.855 32.8574 176.083 32.8574 176.324ZM40.8594 175.025V183.844H39.5879V173.604H40.75L40.8594 175.025ZM45.8428 177.24V177.384C45.8428 177.922 45.779 178.421 45.6514 178.881C45.5238 179.337 45.3369 179.733 45.0908 180.07C44.8493 180.408 44.5508 180.67 44.1953 180.856C43.8398 181.043 43.432 181.137 42.9717 181.137C42.5023 181.137 42.0876 181.059 41.7275 180.904C41.3675 180.749 41.0622 180.524 40.8115 180.228C40.5609 179.931 40.3604 179.576 40.21 179.161C40.0641 178.746 39.9639 178.279 39.9092 177.76V176.994C39.9639 176.447 40.0664 175.957 40.2168 175.524C40.3672 175.091 40.5654 174.722 40.8115 174.417C41.0622 174.107 41.3652 173.872 41.7207 173.713C42.0762 173.549 42.4863 173.467 42.9512 173.467C43.416 173.467 43.8285 173.558 44.1885 173.74C44.5485 173.918 44.8516 174.173 45.0977 174.506C45.3438 174.839 45.5283 175.237 45.6514 175.702C45.779 176.162 45.8428 176.675 45.8428 177.24ZM44.5713 177.384V177.24C44.5713 176.871 44.5326 176.525 44.4551 176.201C44.3776 175.873 44.2568 175.586 44.0928 175.34C43.9333 175.089 43.7282 174.893 43.4775 174.752C43.2269 174.606 42.9284 174.533 42.582 174.533C42.263 174.533 41.985 174.588 41.748 174.697C41.5156 174.807 41.3174 174.955 41.1533 175.142C40.9893 175.324 40.8548 175.534 40.75 175.771C40.6497 176.003 40.5745 176.244 40.5244 176.495V178.266C40.6156 178.585 40.7432 178.885 40.9072 179.168C41.0713 179.446 41.29 179.672 41.5635 179.845C41.8369 180.013 42.181 180.098 42.5957 180.098C42.9375 180.098 43.2314 180.027 43.4775 179.886C43.7282 179.74 43.9333 179.542 44.0928 179.291C44.2568 179.04 44.3776 178.753 44.4551 178.43C44.5326 178.102 44.5713 177.753 44.5713 177.384ZM52.0674 179.735V175.928C52.0674 175.636 52.0081 175.383 51.8896 175.169C51.7757 174.95 51.6025 174.782 51.3701 174.663C51.1377 174.545 50.8506 174.485 50.5088 174.485C50.1898 174.485 49.9095 174.54 49.668 174.649C49.431 174.759 49.2441 174.902 49.1074 175.08C48.9753 175.258 48.9092 175.449 48.9092 175.654H47.6445C47.6445 175.39 47.7129 175.128 47.8496 174.868C47.9863 174.608 48.1823 174.374 48.4375 174.164C48.6973 173.95 49.0072 173.781 49.3672 173.658C49.7318 173.531 50.1374 173.467 50.584 173.467C51.1217 173.467 51.5957 173.558 52.0059 173.74C52.4206 173.923 52.7441 174.198 52.9766 174.567C53.2135 174.932 53.332 175.39 53.332 175.941V179.387C53.332 179.633 53.3525 179.895 53.3936 180.173C53.4391 180.451 53.5052 180.69 53.5918 180.891V181H52.2725C52.2087 180.854 52.1585 180.66 52.1221 180.419C52.0856 180.173 52.0674 179.945 52.0674 179.735ZM52.2861 176.516L52.2998 177.404H51.0215C50.6615 177.404 50.3402 177.434 50.0576 177.493C49.7751 177.548 49.5381 177.632 49.3467 177.746C49.1553 177.86 49.0094 178.004 48.9092 178.177C48.8089 178.345 48.7588 178.544 48.7588 178.771C48.7588 179.004 48.8112 179.216 48.916 179.407C49.0208 179.599 49.1781 179.751 49.3877 179.865C49.6019 179.975 49.8639 180.029 50.1738 180.029C50.5612 180.029 50.903 179.947 51.1992 179.783C51.4954 179.619 51.7301 179.419 51.9033 179.182C52.0811 178.945 52.1768 178.715 52.1904 178.491L52.7305 179.1C52.6986 179.291 52.612 179.503 52.4707 179.735C52.3294 179.968 52.1403 180.191 51.9033 180.405C51.6709 180.615 51.3929 180.79 51.0693 180.932C50.7503 181.068 50.3903 181.137 49.9893 181.137C49.488 181.137 49.0482 181.039 48.6699 180.843C48.2962 180.647 48.0046 180.385 47.7949 180.057C47.5898 179.724 47.4873 179.353 47.4873 178.942C47.4873 178.546 47.5648 178.197 47.7197 177.896C47.8747 177.591 48.098 177.338 48.3896 177.138C48.6813 176.933 49.0322 176.778 49.4424 176.673C49.8525 176.568 50.3105 176.516 50.8164 176.516H52.2861ZM56.8359 174.766V181H55.5713V173.604H56.8018L56.8359 174.766ZM59.1465 173.562L59.1396 174.738C59.0348 174.715 58.9346 174.702 58.8389 174.697C58.7477 174.688 58.6429 174.684 58.5244 174.684C58.2327 174.684 57.9753 174.729 57.752 174.82C57.5286 174.911 57.3395 175.039 57.1846 175.203C57.0296 175.367 56.9066 175.563 56.8154 175.791C56.7288 176.014 56.6719 176.26 56.6445 176.529L56.2891 176.734C56.2891 176.288 56.3324 175.868 56.4189 175.477C56.5101 175.085 56.6491 174.738 56.8359 174.438C57.0228 174.132 57.2598 173.895 57.5469 173.727C57.8385 173.553 58.1849 173.467 58.5859 173.467C58.6771 173.467 58.7819 173.478 58.9004 173.501C59.0189 173.519 59.1009 173.54 59.1465 173.562ZM64.0039 173.604V174.574H60.0049V173.604H64.0039ZM61.3584 171.806H62.623V179.168C62.623 179.419 62.6618 179.608 62.7393 179.735C62.8167 179.863 62.917 179.947 63.04 179.988C63.1631 180.029 63.2952 180.05 63.4365 180.05C63.5413 180.05 63.6507 180.041 63.7646 180.022C63.8831 180 63.972 179.981 64.0312 179.968L64.0381 181C63.9378 181.032 63.8057 181.062 63.6416 181.089C63.4821 181.121 63.2884 181.137 63.0605 181.137C62.7507 181.137 62.4658 181.075 62.2061 180.952C61.9463 180.829 61.7389 180.624 61.584 180.337C61.4336 180.045 61.3584 179.653 61.3584 179.161V171.806ZM67.1113 173.604V181H65.8398V173.604H67.1113ZM65.7441 171.642C65.7441 171.437 65.8057 171.263 65.9287 171.122C66.0563 170.981 66.2432 170.91 66.4893 170.91C66.7308 170.91 66.9154 170.981 67.043 171.122C67.1751 171.263 67.2412 171.437 67.2412 171.642C67.2412 171.838 67.1751 172.006 67.043 172.147C66.9154 172.284 66.7308 172.353 66.4893 172.353C66.2432 172.353 66.0563 172.284 65.9287 172.147C65.8057 172.006 65.7441 171.838 65.7441 171.642ZM70.7656 170.5V181H69.4941V170.5H70.7656ZM74.3105 170.5V181H73.0459V170.5H74.3105ZM74.0098 177.021L73.4834 177.001C73.488 176.495 73.5632 176.028 73.709 175.6C73.8548 175.167 74.0599 174.791 74.3242 174.472C74.5885 174.153 74.903 173.907 75.2676 173.733C75.6367 173.556 76.0446 173.467 76.4912 173.467C76.8558 173.467 77.1839 173.517 77.4756 173.617C77.7673 173.713 78.0156 173.868 78.2207 174.082C78.4303 174.296 78.5898 174.574 78.6992 174.916C78.8086 175.253 78.8633 175.666 78.8633 176.153V181H77.5918V176.14C77.5918 175.752 77.5348 175.442 77.4209 175.21C77.307 174.973 77.1406 174.802 76.9219 174.697C76.7031 174.588 76.4342 174.533 76.1152 174.533C75.8008 174.533 75.5137 174.599 75.2539 174.731C74.9987 174.864 74.7777 175.046 74.5908 175.278C74.4085 175.511 74.265 175.777 74.1602 176.078C74.0599 176.374 74.0098 176.689 74.0098 177.021ZM84.0762 181.137C83.5612 181.137 83.0941 181.05 82.6748 180.877C82.2601 180.699 81.9023 180.451 81.6016 180.132C81.3053 179.813 81.0775 179.435 80.918 178.997C80.7585 178.56 80.6787 178.081 80.6787 177.562V177.274C80.6787 176.673 80.7676 176.137 80.9453 175.668C81.123 175.194 81.3646 174.793 81.6699 174.465C81.9753 174.137 82.3216 173.888 82.709 173.72C83.0964 173.551 83.4974 173.467 83.9121 173.467C84.4408 173.467 84.8965 173.558 85.2793 173.74C85.6667 173.923 85.9834 174.178 86.2295 174.506C86.4756 174.829 86.6579 175.212 86.7764 175.654C86.8949 176.092 86.9541 176.57 86.9541 177.09V177.657H81.4307V176.625H85.6895V176.529C85.6712 176.201 85.6029 175.882 85.4844 175.572C85.3704 175.262 85.1882 175.007 84.9375 174.807C84.6868 174.606 84.3451 174.506 83.9121 174.506C83.625 174.506 83.3607 174.567 83.1191 174.69C82.8776 174.809 82.6702 174.987 82.4971 175.224C82.3239 175.461 82.1895 175.75 82.0938 176.092C81.998 176.434 81.9502 176.828 81.9502 177.274V177.562C81.9502 177.912 81.998 178.243 82.0938 178.553C82.194 178.858 82.3376 179.127 82.5244 179.359C82.7158 179.592 82.946 179.774 83.2148 179.906C83.4883 180.038 83.7982 180.104 84.1445 180.104C84.5911 180.104 84.9694 180.013 85.2793 179.831C85.5892 179.649 85.8604 179.405 86.0928 179.1L86.8584 179.708C86.6989 179.95 86.4961 180.18 86.25 180.398C86.0039 180.617 85.7008 180.795 85.3408 180.932C84.9854 181.068 84.5638 181.137 84.0762 181.137ZM96.71 179.038C96.71 178.856 96.6689 178.687 96.5869 178.532C96.5094 178.373 96.3477 178.229 96.1016 178.102C95.86 177.969 95.4954 177.855 95.0078 177.76C94.5977 177.673 94.2262 177.571 93.8936 177.452C93.5654 177.334 93.2852 177.19 93.0527 177.021C92.8249 176.853 92.6494 176.655 92.5264 176.427C92.4033 176.199 92.3418 175.932 92.3418 175.627C92.3418 175.335 92.4056 175.06 92.5332 174.8C92.6654 174.54 92.8499 174.31 93.0869 174.109C93.3285 173.909 93.6178 173.752 93.9551 173.638C94.2923 173.524 94.6683 173.467 95.083 173.467C95.6755 173.467 96.1813 173.572 96.6006 173.781C97.0199 173.991 97.3411 174.271 97.5645 174.622C97.7878 174.968 97.8994 175.354 97.8994 175.777H96.6348C96.6348 175.572 96.5732 175.374 96.4502 175.183C96.3317 174.987 96.1562 174.825 95.9238 174.697C95.696 174.57 95.4157 174.506 95.083 174.506C94.7321 174.506 94.4473 174.561 94.2285 174.67C94.0143 174.775 93.8571 174.909 93.7568 175.073C93.6611 175.237 93.6133 175.41 93.6133 175.593C93.6133 175.729 93.6361 175.853 93.6816 175.962C93.7318 176.067 93.8184 176.165 93.9414 176.256C94.0645 176.342 94.2376 176.424 94.4609 176.502C94.6842 176.579 94.9691 176.657 95.3154 176.734C95.9215 176.871 96.4206 177.035 96.8125 177.227C97.2044 177.418 97.4961 177.653 97.6875 177.931C97.8789 178.209 97.9746 178.546 97.9746 178.942C97.9746 179.266 97.9062 179.562 97.7695 179.831C97.6374 180.1 97.4437 180.332 97.1885 180.528C96.9378 180.72 96.637 180.87 96.2861 180.979C95.9398 181.084 95.5501 181.137 95.1172 181.137C94.4655 181.137 93.9141 181.021 93.4629 180.788C93.0117 180.556 92.6699 180.255 92.4375 179.886C92.2051 179.517 92.0889 179.127 92.0889 178.717H93.3604C93.3786 179.063 93.4788 179.339 93.6611 179.544C93.8434 179.744 94.0667 179.888 94.3311 179.975C94.5954 180.057 94.8574 180.098 95.1172 180.098C95.4635 180.098 95.7529 180.052 95.9854 179.961C96.2223 179.87 96.4023 179.744 96.5254 179.585C96.6484 179.425 96.71 179.243 96.71 179.038ZM102.955 181.137C102.44 181.137 101.973 181.05 101.554 180.877C101.139 180.699 100.781 180.451 100.48 180.132C100.184 179.813 99.9564 179.435 99.7969 178.997C99.6374 178.56 99.5576 178.081 99.5576 177.562V177.274C99.5576 176.673 99.6465 176.137 99.8242 175.668C100.002 175.194 100.243 174.793 100.549 174.465C100.854 174.137 101.201 173.888 101.588 173.72C101.975 173.551 102.376 173.467 102.791 173.467C103.32 173.467 103.775 173.558 104.158 173.74C104.546 173.923 104.862 174.178 105.108 174.506C105.354 174.829 105.537 175.212 105.655 175.654C105.774 176.092 105.833 176.57 105.833 177.09V177.657H100.31V176.625H104.568V176.529C104.55 176.201 104.482 175.882 104.363 175.572C104.249 175.262 104.067 175.007 103.816 174.807C103.566 174.606 103.224 174.506 102.791 174.506C102.504 174.506 102.24 174.567 101.998 174.69C101.757 174.809 101.549 174.987 101.376 175.224C101.203 175.461 101.068 175.75 100.973 176.092C100.877 176.434 100.829 176.828 100.829 177.274V177.562C100.829 177.912 100.877 178.243 100.973 178.553C101.073 178.858 101.216 179.127 101.403 179.359C101.595 179.592 101.825 179.774 102.094 179.906C102.367 180.038 102.677 180.104 103.023 180.104C103.47 180.104 103.848 180.013 104.158 179.831C104.468 179.649 104.739 179.405 104.972 179.1L105.737 179.708C105.578 179.95 105.375 180.18 105.129 180.398C104.883 180.617 104.58 180.795 104.22 180.932C103.864 181.068 103.443 181.137 102.955 181.137ZM112.085 179.291V173.604H113.356V181H112.146L112.085 179.291ZM112.324 177.732L112.851 177.719C112.851 178.211 112.798 178.667 112.693 179.086C112.593 179.501 112.429 179.861 112.201 180.166C111.973 180.471 111.675 180.711 111.306 180.884C110.937 181.052 110.488 181.137 109.959 181.137C109.599 181.137 109.269 181.084 108.968 180.979C108.672 180.875 108.416 180.713 108.202 180.494C107.988 180.275 107.822 179.991 107.703 179.64C107.589 179.289 107.532 178.867 107.532 178.375V173.604H108.797V178.389C108.797 178.721 108.833 178.997 108.906 179.216C108.984 179.43 109.086 179.601 109.214 179.729C109.346 179.852 109.492 179.938 109.651 179.988C109.815 180.038 109.984 180.063 110.157 180.063C110.695 180.063 111.121 179.961 111.436 179.756C111.75 179.546 111.976 179.266 112.112 178.915C112.254 178.56 112.324 178.165 112.324 177.732ZM122.354 173.604V174.574H118.354V173.604H122.354ZM119.708 171.806H120.973V179.168C120.973 179.419 121.011 179.608 121.089 179.735C121.166 179.863 121.267 179.947 121.39 179.988C121.513 180.029 121.645 180.05 121.786 180.05C121.891 180.05 122 180.041 122.114 180.022C122.233 180 122.322 179.981 122.381 179.968L122.388 181C122.287 181.032 122.155 181.062 121.991 181.089C121.832 181.121 121.638 181.137 121.41 181.137C121.1 181.137 120.815 181.075 120.556 180.952C120.296 180.829 120.089 180.624 119.934 180.337C119.783 180.045 119.708 179.653 119.708 179.161V171.806ZM128.448 179.735V175.928C128.448 175.636 128.389 175.383 128.271 175.169C128.157 174.95 127.983 174.782 127.751 174.663C127.519 174.545 127.231 174.485 126.89 174.485C126.571 174.485 126.29 174.54 126.049 174.649C125.812 174.759 125.625 174.902 125.488 175.08C125.356 175.258 125.29 175.449 125.29 175.654H124.025C124.025 175.39 124.094 175.128 124.23 174.868C124.367 174.608 124.563 174.374 124.818 174.164C125.078 173.95 125.388 173.781 125.748 173.658C126.113 173.531 126.518 173.467 126.965 173.467C127.503 173.467 127.977 173.558 128.387 173.74C128.801 173.923 129.125 174.198 129.357 174.567C129.594 174.932 129.713 175.39 129.713 175.941V179.387C129.713 179.633 129.733 179.895 129.774 180.173C129.82 180.451 129.886 180.69 129.973 180.891V181H128.653C128.59 180.854 128.539 180.66 128.503 180.419C128.466 180.173 128.448 179.945 128.448 179.735ZM128.667 176.516L128.681 177.404H127.402C127.042 177.404 126.721 177.434 126.438 177.493C126.156 177.548 125.919 177.632 125.728 177.746C125.536 177.86 125.39 178.004 125.29 178.177C125.19 178.345 125.14 178.544 125.14 178.771C125.14 179.004 125.192 179.216 125.297 179.407C125.402 179.599 125.559 179.751 125.769 179.865C125.983 179.975 126.245 180.029 126.555 180.029C126.942 180.029 127.284 179.947 127.58 179.783C127.876 179.619 128.111 179.419 128.284 179.182C128.462 178.945 128.558 178.715 128.571 178.491L129.111 179.1C129.079 179.291 128.993 179.503 128.852 179.735C128.71 179.968 128.521 180.191 128.284 180.405C128.052 180.615 127.774 180.79 127.45 180.932C127.131 181.068 126.771 181.137 126.37 181.137C125.869 181.137 125.429 181.039 125.051 180.843C124.677 180.647 124.385 180.385 124.176 180.057C123.971 179.724 123.868 179.353 123.868 178.942C123.868 178.546 123.946 178.197 124.101 177.896C124.256 177.591 124.479 177.338 124.771 177.138C125.062 176.933 125.413 176.778 125.823 176.673C126.233 176.568 126.691 176.516 127.197 176.516H128.667ZM133.326 170.5V181H132.055V170.5H133.326ZM138.676 181.137C138.161 181.137 137.694 181.05 137.274 180.877C136.86 180.699 136.502 180.451 136.201 180.132C135.905 179.813 135.677 179.435 135.518 178.997C135.358 178.56 135.278 178.081 135.278 177.562V177.274C135.278 176.673 135.367 176.137 135.545 175.668C135.723 175.194 135.964 174.793 136.27 174.465C136.575 174.137 136.921 173.888 137.309 173.72C137.696 173.551 138.097 173.467 138.512 173.467C139.04 173.467 139.496 173.558 139.879 173.74C140.266 173.923 140.583 174.178 140.829 174.506C141.075 174.829 141.257 175.212 141.376 175.654C141.494 176.092 141.554 176.57 141.554 177.09V177.657H136.03V176.625H140.289V176.529C140.271 176.201 140.202 175.882 140.084 175.572C139.97 175.262 139.788 175.007 139.537 174.807C139.286 174.606 138.945 174.506 138.512 174.506C138.225 174.506 137.96 174.567 137.719 174.69C137.477 174.809 137.27 174.987 137.097 175.224C136.924 175.461 136.789 175.75 136.693 176.092C136.598 176.434 136.55 176.828 136.55 177.274V177.562C136.55 177.912 136.598 178.243 136.693 178.553C136.794 178.858 136.937 179.127 137.124 179.359C137.315 179.592 137.546 179.774 137.814 179.906C138.088 180.038 138.398 180.104 138.744 180.104C139.191 180.104 139.569 180.013 139.879 179.831C140.189 179.649 140.46 179.405 140.692 179.1L141.458 179.708C141.299 179.95 141.096 180.18 140.85 180.398C140.604 180.617 140.3 180.795 139.94 180.932C139.585 181.068 139.163 181.137 138.676 181.137ZM144.545 175.183V181H143.28V173.604H144.477L144.545 175.183ZM144.244 177.021L143.718 177.001C143.722 176.495 143.798 176.028 143.943 175.6C144.089 175.167 144.294 174.791 144.559 174.472C144.823 174.153 145.137 173.907 145.502 173.733C145.871 173.556 146.279 173.467 146.726 173.467C147.09 173.467 147.418 173.517 147.71 173.617C148.002 173.713 148.25 173.868 148.455 174.082C148.665 174.296 148.824 174.574 148.934 174.916C149.043 175.253 149.098 175.666 149.098 176.153V181H147.826V176.14C147.826 175.752 147.769 175.442 147.655 175.21C147.541 174.973 147.375 174.802 147.156 174.697C146.938 174.588 146.669 174.533 146.35 174.533C146.035 174.533 145.748 174.599 145.488 174.731C145.233 174.864 145.012 175.046 144.825 175.278C144.643 175.511 144.499 175.777 144.395 176.078C144.294 176.374 144.244 176.689 144.244 177.021ZM154.365 173.604V174.574H150.366V173.604H154.365ZM151.72 171.806H152.984V179.168C152.984 179.419 153.023 179.608 153.101 179.735C153.178 179.863 153.278 179.947 153.401 179.988C153.524 180.029 153.657 180.05 153.798 180.05C153.903 180.05 154.012 180.041 154.126 180.022C154.244 180 154.333 179.981 154.393 179.968L154.399 181C154.299 181.032 154.167 181.062 154.003 181.089C153.843 181.121 153.65 181.137 153.422 181.137C153.112 181.137 152.827 181.075 152.567 180.952C152.308 180.829 152.1 180.624 151.945 180.337C151.795 180.045 151.72 179.653 151.72 179.161V171.806ZM155.627 177.384V177.227C155.627 176.693 155.704 176.199 155.859 175.743C156.014 175.283 156.238 174.884 156.529 174.547C156.821 174.205 157.174 173.941 157.589 173.754C158.004 173.562 158.468 173.467 158.983 173.467C159.503 173.467 159.97 173.562 160.385 173.754C160.804 173.941 161.16 174.205 161.451 174.547C161.747 174.884 161.973 175.283 162.128 175.743C162.283 176.199 162.36 176.693 162.36 177.227V177.384C162.36 177.917 162.283 178.411 162.128 178.867C161.973 179.323 161.747 179.722 161.451 180.063C161.16 180.401 160.806 180.665 160.392 180.856C159.981 181.043 159.517 181.137 158.997 181.137C158.478 181.137 158.01 181.043 157.596 180.856C157.181 180.665 156.826 180.401 156.529 180.063C156.238 179.722 156.014 179.323 155.859 178.867C155.704 178.411 155.627 177.917 155.627 177.384ZM156.892 177.227V177.384C156.892 177.753 156.935 178.102 157.021 178.43C157.108 178.753 157.238 179.04 157.411 179.291C157.589 179.542 157.81 179.74 158.074 179.886C158.339 180.027 158.646 180.098 158.997 180.098C159.343 180.098 159.646 180.027 159.906 179.886C160.171 179.74 160.389 179.542 160.562 179.291C160.736 179.04 160.866 178.753 160.952 178.43C161.043 178.102 161.089 177.753 161.089 177.384V177.227C161.089 176.862 161.043 176.518 160.952 176.194C160.866 175.866 160.733 175.577 160.556 175.326C160.382 175.071 160.164 174.87 159.899 174.725C159.64 174.579 159.334 174.506 158.983 174.506C158.637 174.506 158.332 174.579 158.067 174.725C157.808 174.87 157.589 175.071 157.411 175.326C157.238 175.577 157.108 175.866 157.021 176.194C156.935 176.518 156.892 176.862 156.892 177.227ZM170.879 180.098C171.18 180.098 171.458 180.036 171.713 179.913C171.968 179.79 172.178 179.621 172.342 179.407C172.506 179.188 172.599 178.94 172.622 178.662H173.825C173.802 179.1 173.654 179.507 173.381 179.886C173.112 180.259 172.759 180.562 172.321 180.795C171.884 181.023 171.403 181.137 170.879 181.137C170.323 181.137 169.838 181.039 169.423 180.843C169.013 180.647 168.671 180.378 168.397 180.036C168.129 179.694 167.926 179.302 167.789 178.86C167.657 178.414 167.591 177.942 167.591 177.445V177.158C167.591 176.661 167.657 176.192 167.789 175.75C167.926 175.303 168.129 174.909 168.397 174.567C168.671 174.226 169.013 173.957 169.423 173.761C169.838 173.565 170.323 173.467 170.879 173.467C171.458 173.467 171.964 173.585 172.396 173.822C172.829 174.055 173.169 174.374 173.415 174.779C173.666 175.18 173.802 175.636 173.825 176.146H172.622C172.599 175.841 172.513 175.565 172.362 175.319C172.216 175.073 172.016 174.877 171.761 174.731C171.51 174.581 171.216 174.506 170.879 174.506C170.492 174.506 170.166 174.583 169.901 174.738C169.642 174.889 169.434 175.094 169.279 175.354C169.129 175.609 169.02 175.894 168.951 176.208C168.887 176.518 168.855 176.835 168.855 177.158V177.445C168.855 177.769 168.887 178.088 168.951 178.402C169.015 178.717 169.122 179.002 169.272 179.257C169.427 179.512 169.635 179.717 169.895 179.872C170.159 180.022 170.487 180.098 170.879 180.098ZM175.162 177.384V177.227C175.162 176.693 175.24 176.199 175.395 175.743C175.549 175.283 175.773 174.884 176.064 174.547C176.356 174.205 176.709 173.941 177.124 173.754C177.539 173.562 178.004 173.467 178.519 173.467C179.038 173.467 179.505 173.562 179.92 173.754C180.339 173.941 180.695 174.205 180.986 174.547C181.283 174.884 181.508 175.283 181.663 175.743C181.818 176.199 181.896 176.693 181.896 177.227V177.384C181.896 177.917 181.818 178.411 181.663 178.867C181.508 179.323 181.283 179.722 180.986 180.063C180.695 180.401 180.341 180.665 179.927 180.856C179.517 181.043 179.052 181.137 178.532 181.137C178.013 181.137 177.546 181.043 177.131 180.856C176.716 180.665 176.361 180.401 176.064 180.063C175.773 179.722 175.549 179.323 175.395 178.867C175.24 178.411 175.162 177.917 175.162 177.384ZM176.427 177.227V177.384C176.427 177.753 176.47 178.102 176.557 178.43C176.643 178.753 176.773 179.04 176.946 179.291C177.124 179.542 177.345 179.74 177.609 179.886C177.874 180.027 178.181 180.098 178.532 180.098C178.879 180.098 179.182 180.027 179.441 179.886C179.706 179.74 179.924 179.542 180.098 179.291C180.271 179.04 180.401 178.753 180.487 178.43C180.578 178.102 180.624 177.753 180.624 177.384V177.227C180.624 176.862 180.578 176.518 180.487 176.194C180.401 175.866 180.269 175.577 180.091 175.326C179.918 175.071 179.699 174.87 179.435 174.725C179.175 174.579 178.869 174.506 178.519 174.506C178.172 174.506 177.867 174.579 177.603 174.725C177.343 174.87 177.124 175.071 176.946 175.326C176.773 175.577 176.643 175.866 176.557 176.194C176.47 176.518 176.427 176.862 176.427 177.227ZM184.989 175.073V181H183.718V173.604H184.921L184.989 175.073ZM184.729 177.021L184.142 177.001C184.146 176.495 184.212 176.028 184.34 175.6C184.467 175.167 184.657 174.791 184.907 174.472C185.158 174.153 185.47 173.907 185.844 173.733C186.217 173.556 186.65 173.467 187.143 173.467C187.489 173.467 187.808 173.517 188.1 173.617C188.391 173.713 188.644 173.866 188.858 174.075C189.073 174.285 189.239 174.554 189.357 174.882C189.476 175.21 189.535 175.606 189.535 176.071V181H188.271V176.133C188.271 175.745 188.204 175.436 188.072 175.203C187.945 174.971 187.762 174.802 187.525 174.697C187.288 174.588 187.01 174.533 186.691 174.533C186.318 174.533 186.006 174.599 185.755 174.731C185.504 174.864 185.304 175.046 185.153 175.278C185.003 175.511 184.894 175.777 184.825 176.078C184.761 176.374 184.729 176.689 184.729 177.021ZM189.521 176.324L188.674 176.584C188.678 176.178 188.744 175.789 188.872 175.415C189.004 175.041 189.193 174.709 189.439 174.417C189.69 174.125 189.998 173.895 190.362 173.727C190.727 173.553 191.144 173.467 191.613 173.467C192.01 173.467 192.361 173.519 192.666 173.624C192.976 173.729 193.236 173.891 193.445 174.109C193.66 174.324 193.821 174.599 193.931 174.937C194.04 175.274 194.095 175.675 194.095 176.14V181H192.823V176.126C192.823 175.711 192.757 175.39 192.625 175.162C192.497 174.93 192.315 174.768 192.078 174.677C191.846 174.581 191.568 174.533 191.244 174.533C190.966 174.533 190.72 174.581 190.506 174.677C190.292 174.772 190.112 174.905 189.966 175.073C189.82 175.237 189.708 175.426 189.631 175.641C189.558 175.855 189.521 176.083 189.521 176.324ZM201.239 175.073V181H199.968V173.604H201.171L201.239 175.073ZM200.979 177.021L200.392 177.001C200.396 176.495 200.462 176.028 200.59 175.6C200.717 175.167 200.907 174.791 201.157 174.472C201.408 174.153 201.72 173.907 202.094 173.733C202.467 173.556 202.9 173.467 203.393 173.467C203.739 173.467 204.058 173.517 204.35 173.617C204.641 173.713 204.894 173.866 205.108 174.075C205.323 174.285 205.489 174.554 205.607 174.882C205.726 175.21 205.785 175.606 205.785 176.071V181H204.521V176.133C204.521 175.745 204.454 175.436 204.322 175.203C204.195 174.971 204.012 174.802 203.775 174.697C203.538 174.588 203.26 174.533 202.941 174.533C202.568 174.533 202.256 174.599 202.005 174.731C201.754 174.864 201.554 175.046 201.403 175.278C201.253 175.511 201.144 175.777 201.075 176.078C201.011 176.374 200.979 176.689 200.979 177.021ZM205.771 176.324L204.924 176.584C204.928 176.178 204.994 175.789 205.122 175.415C205.254 175.041 205.443 174.709 205.689 174.417C205.94 174.125 206.248 173.895 206.612 173.727C206.977 173.553 207.394 173.467 207.863 173.467C208.26 173.467 208.611 173.519 208.916 173.624C209.226 173.729 209.486 173.891 209.695 174.109C209.91 174.324 210.071 174.599 210.181 174.937C210.29 175.274 210.345 175.675 210.345 176.14V181H209.073V176.126C209.073 175.711 209.007 175.39 208.875 175.162C208.747 174.93 208.565 174.768 208.328 174.677C208.096 174.581 207.818 174.533 207.494 174.533C207.216 174.533 206.97 174.581 206.756 174.677C206.542 174.772 206.362 174.905 206.216 175.073C206.07 175.237 205.958 175.426 205.881 175.641C205.808 175.855 205.771 176.083 205.771 176.324ZM213.883 173.604V181H212.611V173.604H213.883ZM212.516 171.642C212.516 171.437 212.577 171.263 212.7 171.122C212.828 170.981 213.015 170.91 213.261 170.91C213.502 170.91 213.687 170.981 213.814 171.122C213.947 171.263 214.013 171.437 214.013 171.642C214.013 171.838 213.947 172.006 213.814 172.147C213.687 172.284 213.502 172.353 213.261 172.353C213.015 172.353 212.828 172.284 212.7 172.147C212.577 172.006 212.516 171.838 212.516 171.642ZM217.537 170.5V181H216.266V170.5H217.537ZM221.082 170.5V181H219.817V170.5H221.082ZM220.781 177.021L220.255 177.001C220.259 176.495 220.335 176.028 220.48 175.6C220.626 175.167 220.831 174.791 221.096 174.472C221.36 174.153 221.674 173.907 222.039 173.733C222.408 173.556 222.816 173.467 223.263 173.467C223.627 173.467 223.955 173.517 224.247 173.617C224.539 173.713 224.787 173.868 224.992 174.082C225.202 174.296 225.361 174.574 225.471 174.916C225.58 175.253 225.635 175.666 225.635 176.153V181H224.363V176.14C224.363 175.752 224.306 175.442 224.192 175.21C224.078 174.973 223.912 174.802 223.693 174.697C223.475 174.588 223.206 174.533 222.887 174.533C222.572 174.533 222.285 174.599 222.025 174.731C221.77 174.864 221.549 175.046 221.362 175.278C221.18 175.511 221.036 175.777 220.932 176.078C220.831 176.374 220.781 176.689 220.781 177.021ZM232.14 179.735V175.928C232.14 175.636 232.08 175.383 231.962 175.169C231.848 174.95 231.675 174.782 231.442 174.663C231.21 174.545 230.923 174.485 230.581 174.485C230.262 174.485 229.982 174.54 229.74 174.649C229.503 174.759 229.316 174.902 229.18 175.08C229.048 175.258 228.981 175.449 228.981 175.654H227.717C227.717 175.39 227.785 175.128 227.922 174.868C228.059 174.608 228.255 174.374 228.51 174.164C228.77 173.95 229.079 173.781 229.439 173.658C229.804 173.531 230.21 173.467 230.656 173.467C231.194 173.467 231.668 173.558 232.078 173.74C232.493 173.923 232.816 174.198 233.049 174.567C233.286 174.932 233.404 175.39 233.404 175.941V179.387C233.404 179.633 233.425 179.895 233.466 180.173C233.511 180.451 233.577 180.69 233.664 180.891V181H232.345C232.281 180.854 232.231 180.66 232.194 180.419C232.158 180.173 232.14 179.945 232.14 179.735ZM232.358 176.516L232.372 177.404H231.094C230.734 177.404 230.412 177.434 230.13 177.493C229.847 177.548 229.61 177.632 229.419 177.746C229.228 177.86 229.082 178.004 228.981 178.177C228.881 178.345 228.831 178.544 228.831 178.771C228.831 179.004 228.883 179.216 228.988 179.407C229.093 179.599 229.25 179.751 229.46 179.865C229.674 179.975 229.936 180.029 230.246 180.029C230.633 180.029 230.975 179.947 231.271 179.783C231.568 179.619 231.802 179.419 231.976 179.182C232.153 178.945 232.249 178.715 232.263 178.491L232.803 179.1C232.771 179.291 232.684 179.503 232.543 179.735C232.402 179.968 232.213 180.191 231.976 180.405C231.743 180.615 231.465 180.79 231.142 180.932C230.823 181.068 230.463 181.137 230.062 181.137C229.56 181.137 229.12 181.039 228.742 180.843C228.368 180.647 228.077 180.385 227.867 180.057C227.662 179.724 227.56 179.353 227.56 178.942C227.56 178.546 227.637 178.197 227.792 177.896C227.947 177.591 228.17 177.338 228.462 177.138C228.754 176.933 229.104 176.778 229.515 176.673C229.925 176.568 230.383 176.516 230.889 176.516H232.358ZM236.908 174.766V181H235.644V173.604H236.874L236.908 174.766ZM239.219 173.562L239.212 174.738C239.107 174.715 239.007 174.702 238.911 174.697C238.82 174.688 238.715 174.684 238.597 174.684C238.305 174.684 238.048 174.729 237.824 174.82C237.601 174.911 237.412 175.039 237.257 175.203C237.102 175.367 236.979 175.563 236.888 175.791C236.801 176.014 236.744 176.26 236.717 176.529L236.361 176.734C236.361 176.288 236.405 175.868 236.491 175.477C236.582 175.085 236.721 174.738 236.908 174.438C237.095 174.132 237.332 173.895 237.619 173.727C237.911 173.553 238.257 173.467 238.658 173.467C238.749 173.467 238.854 173.478 238.973 173.501C239.091 173.519 239.173 173.54 239.219 173.562ZM243.57 181.137C243.055 181.137 242.588 181.05 242.169 180.877C241.754 180.699 241.396 180.451 241.096 180.132C240.799 179.813 240.572 179.435 240.412 178.997C240.253 178.56 240.173 178.081 240.173 177.562V177.274C240.173 176.673 240.262 176.137 240.439 175.668C240.617 175.194 240.859 174.793 241.164 174.465C241.469 174.137 241.816 173.888 242.203 173.72C242.59 173.551 242.992 173.467 243.406 173.467C243.935 173.467 244.391 173.558 244.773 173.74C245.161 173.923 245.478 174.178 245.724 174.506C245.97 174.829 246.152 175.212 246.271 175.654C246.389 176.092 246.448 176.57 246.448 177.09V177.657H240.925V176.625H245.184V176.529C245.165 176.201 245.097 175.882 244.979 175.572C244.865 175.262 244.682 175.007 244.432 174.807C244.181 174.606 243.839 174.506 243.406 174.506C243.119 174.506 242.855 174.567 242.613 174.69C242.372 174.809 242.164 174.987 241.991 175.224C241.818 175.461 241.684 175.75 241.588 176.092C241.492 176.434 241.444 176.828 241.444 177.274V177.562C241.444 177.912 241.492 178.243 241.588 178.553C241.688 178.858 241.832 179.127 242.019 179.359C242.21 179.592 242.44 179.774 242.709 179.906C242.982 180.038 243.292 180.104 243.639 180.104C244.085 180.104 244.464 180.013 244.773 179.831C245.083 179.649 245.354 179.405 245.587 179.1L246.353 179.708C246.193 179.95 245.99 180.18 245.744 180.398C245.498 180.617 245.195 180.795 244.835 180.932C244.479 181.068 244.058 181.137 243.57 181.137ZM252.481 179.038C252.481 178.856 252.44 178.687 252.358 178.532C252.281 178.373 252.119 178.229 251.873 178.102C251.632 177.969 251.267 177.855 250.779 177.76C250.369 177.673 249.998 177.571 249.665 177.452C249.337 177.334 249.057 177.19 248.824 177.021C248.596 176.853 248.421 176.655 248.298 176.427C248.175 176.199 248.113 175.932 248.113 175.627C248.113 175.335 248.177 175.06 248.305 174.8C248.437 174.54 248.621 174.31 248.858 174.109C249.1 173.909 249.389 173.752 249.727 173.638C250.064 173.524 250.44 173.467 250.854 173.467C251.447 173.467 251.953 173.572 252.372 173.781C252.791 173.991 253.113 174.271 253.336 174.622C253.559 174.968 253.671 175.354 253.671 175.777H252.406C252.406 175.572 252.345 175.374 252.222 175.183C252.103 174.987 251.928 174.825 251.695 174.697C251.467 174.57 251.187 174.506 250.854 174.506C250.504 174.506 250.219 174.561 250 174.67C249.786 174.775 249.629 174.909 249.528 175.073C249.433 175.237 249.385 175.41 249.385 175.593C249.385 175.729 249.408 175.853 249.453 175.962C249.503 176.067 249.59 176.165 249.713 176.256C249.836 176.342 250.009 176.424 250.232 176.502C250.456 176.579 250.741 176.657 251.087 176.734C251.693 176.871 252.192 177.035 252.584 177.227C252.976 177.418 253.268 177.653 253.459 177.931C253.65 178.209 253.746 178.546 253.746 178.942C253.746 179.266 253.678 179.562 253.541 179.831C253.409 180.1 253.215 180.332 252.96 180.528C252.709 180.72 252.409 180.87 252.058 180.979C251.711 181.084 251.322 181.137 250.889 181.137C250.237 181.137 249.686 181.021 249.234 180.788C248.783 180.556 248.441 180.255 248.209 179.886C247.977 179.517 247.86 179.127 247.86 178.717H249.132C249.15 179.063 249.25 179.339 249.433 179.544C249.615 179.744 249.838 179.888 250.103 179.975C250.367 180.057 250.629 180.098 250.889 180.098C251.235 180.098 251.524 180.052 251.757 179.961C251.994 179.87 252.174 179.744 252.297 179.585C252.42 179.425 252.481 179.243 252.481 179.038ZM14.126 193.564V184.5H15.3975V195H14.2354L14.126 193.564ZM9.14941 191.384V191.24C9.14941 190.675 9.21777 190.162 9.35449 189.702C9.49577 189.237 9.69401 188.839 9.94922 188.506C10.209 188.173 10.5166 187.918 10.8721 187.74C11.2321 187.558 11.6331 187.467 12.0752 187.467C12.54 187.467 12.9456 187.549 13.292 187.713C13.6429 187.872 13.9391 188.107 14.1807 188.417C14.4268 188.722 14.6204 189.091 14.7617 189.524C14.903 189.957 15.001 190.447 15.0557 190.994V191.623C15.0055 192.165 14.9076 192.653 14.7617 193.086C14.6204 193.519 14.4268 193.888 14.1807 194.193C13.9391 194.499 13.6429 194.733 13.292 194.897C12.9411 195.057 12.5309 195.137 12.0615 195.137C11.6286 195.137 11.2321 195.043 10.8721 194.856C10.5166 194.67 10.209 194.408 9.94922 194.07C9.69401 193.733 9.49577 193.337 9.35449 192.881C9.21777 192.421 9.14941 191.922 9.14941 191.384ZM10.4209 191.24V191.384C10.4209 191.753 10.4574 192.099 10.5303 192.423C10.6077 192.746 10.7262 193.031 10.8857 193.277C11.0452 193.523 11.248 193.717 11.4941 193.858C11.7402 193.995 12.0342 194.063 12.376 194.063C12.7952 194.063 13.1393 193.975 13.4082 193.797C13.6816 193.619 13.9004 193.384 14.0645 193.093C14.2285 192.801 14.3561 192.484 14.4473 192.143V190.495C14.3926 190.244 14.3128 190.003 14.208 189.771C14.1077 189.534 13.9756 189.324 13.8115 189.142C13.652 188.955 13.4538 188.807 13.2168 188.697C12.9844 188.588 12.7087 188.533 12.3896 188.533C12.0433 188.533 11.7448 188.606 11.4941 188.752C11.248 188.893 11.0452 189.089 10.8857 189.34C10.7262 189.586 10.6077 189.873 10.5303 190.201C10.4574 190.525 10.4209 190.871 10.4209 191.24ZM20.6855 195.137C20.1706 195.137 19.7035 195.05 19.2842 194.877C18.8695 194.699 18.5117 194.451 18.2109 194.132C17.9147 193.813 17.6868 193.435 17.5273 192.997C17.3678 192.56 17.2881 192.081 17.2881 191.562V191.274C17.2881 190.673 17.377 190.137 17.5547 189.668C17.7324 189.194 17.974 188.793 18.2793 188.465C18.5846 188.137 18.931 187.888 19.3184 187.72C19.7057 187.551 20.1068 187.467 20.5215 187.467C21.0501 187.467 21.5059 187.558 21.8887 187.74C22.276 187.923 22.5928 188.178 22.8389 188.506C23.085 188.829 23.2673 189.212 23.3857 189.654C23.5042 190.092 23.5635 190.57 23.5635 191.09V191.657H18.04V190.625H22.2988V190.529C22.2806 190.201 22.2122 189.882 22.0938 189.572C21.9798 189.262 21.7975 189.007 21.5469 188.807C21.2962 188.606 20.9544 188.506 20.5215 188.506C20.2344 188.506 19.9701 188.567 19.7285 188.69C19.487 188.809 19.2796 188.987 19.1064 189.224C18.9333 189.461 18.7988 189.75 18.7031 190.092C18.6074 190.434 18.5596 190.828 18.5596 191.274V191.562C18.5596 191.912 18.6074 192.243 18.7031 192.553C18.8034 192.858 18.9469 193.127 19.1338 193.359C19.3252 193.592 19.5553 193.774 19.8242 193.906C20.0977 194.038 20.4076 194.104 20.7539 194.104C21.2005 194.104 21.5788 194.013 21.8887 193.831C22.1986 193.649 22.4697 193.405 22.7021 193.1L23.4678 193.708C23.3083 193.95 23.1055 194.18 22.8594 194.398C22.6133 194.617 22.3102 194.795 21.9502 194.932C21.5947 195.068 21.1732 195.137 20.6855 195.137ZM30.2773 189.025V197.844H29.0059V187.604H30.168L30.2773 189.025ZM35.2607 191.24V191.384C35.2607 191.922 35.1969 192.421 35.0693 192.881C34.9417 193.337 34.7549 193.733 34.5088 194.07C34.2673 194.408 33.9688 194.67 33.6133 194.856C33.2578 195.043 32.8499 195.137 32.3896 195.137C31.9202 195.137 31.5055 195.059 31.1455 194.904C30.7855 194.749 30.4801 194.524 30.2295 194.228C29.9788 193.931 29.7783 193.576 29.6279 193.161C29.4821 192.746 29.3818 192.279 29.3271 191.76V190.994C29.3818 190.447 29.4844 189.957 29.6348 189.524C29.7852 189.091 29.9834 188.722 30.2295 188.417C30.4801 188.107 30.7832 187.872 31.1387 187.713C31.4941 187.549 31.9043 187.467 32.3691 187.467C32.834 187.467 33.2464 187.558 33.6064 187.74C33.9665 187.918 34.2695 188.173 34.5156 188.506C34.7617 188.839 34.9463 189.237 35.0693 189.702C35.1969 190.162 35.2607 190.675 35.2607 191.24ZM33.9893 191.384V191.24C33.9893 190.871 33.9505 190.525 33.873 190.201C33.7956 189.873 33.6748 189.586 33.5107 189.34C33.3512 189.089 33.1462 188.893 32.8955 188.752C32.6449 188.606 32.3464 188.533 32 188.533C31.681 188.533 31.403 188.588 31.166 188.697C30.9336 188.807 30.7354 188.955 30.5713 189.142C30.4072 189.324 30.2728 189.534 30.168 189.771C30.0677 190.003 29.9925 190.244 29.9424 190.495V192.266C30.0335 192.585 30.1611 192.885 30.3252 193.168C30.4893 193.446 30.708 193.672 30.9814 193.845C31.2549 194.013 31.599 194.098 32.0137 194.098C32.3555 194.098 32.6494 194.027 32.8955 193.886C33.1462 193.74 33.3512 193.542 33.5107 193.291C33.6748 193.04 33.7956 192.753 33.873 192.43C33.9505 192.102 33.9893 191.753 33.9893 191.384ZM40.1934 195.137C39.6784 195.137 39.2113 195.05 38.792 194.877C38.3773 194.699 38.0195 194.451 37.7188 194.132C37.4225 193.813 37.1947 193.435 37.0352 192.997C36.8757 192.56 36.7959 192.081 36.7959 191.562V191.274C36.7959 190.673 36.8848 190.137 37.0625 189.668C37.2402 189.194 37.4818 188.793 37.7871 188.465C38.0924 188.137 38.4388 187.888 38.8262 187.72C39.2135 187.551 39.6146 187.467 40.0293 187.467C40.5579 187.467 41.0137 187.558 41.3965 187.74C41.7839 187.923 42.1006 188.178 42.3467 188.506C42.5928 188.829 42.7751 189.212 42.8936 189.654C43.012 190.092 43.0713 190.57 43.0713 191.09V191.657H37.5479V190.625H41.8066V190.529C41.7884 190.201 41.7201 189.882 41.6016 189.572C41.4876 189.262 41.3053 189.007 41.0547 188.807C40.804 188.606 40.4622 188.506 40.0293 188.506C39.7422 188.506 39.4779 188.567 39.2363 188.69C38.9948 188.809 38.7874 188.987 38.6143 189.224C38.4411 189.461 38.3066 189.75 38.2109 190.092C38.1152 190.434 38.0674 190.828 38.0674 191.274V191.562C38.0674 191.912 38.1152 192.243 38.2109 192.553C38.3112 192.858 38.4548 193.127 38.6416 193.359C38.833 193.592 39.0632 193.774 39.332 193.906C39.6055 194.038 39.9154 194.104 40.2617 194.104C40.7083 194.104 41.0866 194.013 41.3965 193.831C41.7064 193.649 41.9775 193.405 42.21 193.1L42.9756 193.708C42.8161 193.95 42.6133 194.18 42.3672 194.398C42.1211 194.617 41.818 194.795 41.458 194.932C41.1025 195.068 40.681 195.137 40.1934 195.137ZM49.1045 193.038C49.1045 192.856 49.0635 192.687 48.9814 192.532C48.904 192.373 48.7422 192.229 48.4961 192.102C48.2546 191.969 47.89 191.855 47.4023 191.76C46.9922 191.673 46.6208 191.571 46.2881 191.452C45.96 191.334 45.6797 191.19 45.4473 191.021C45.2194 190.853 45.0439 190.655 44.9209 190.427C44.7979 190.199 44.7363 189.932 44.7363 189.627C44.7363 189.335 44.8001 189.06 44.9277 188.8C45.0599 188.54 45.2445 188.31 45.4814 188.109C45.723 187.909 46.0124 187.752 46.3496 187.638C46.6868 187.524 47.0628 187.467 47.4775 187.467C48.07 187.467 48.5758 187.572 48.9951 187.781C49.4144 187.991 49.7357 188.271 49.959 188.622C50.1823 188.968 50.2939 189.354 50.2939 189.777H49.0293C49.0293 189.572 48.9678 189.374 48.8447 189.183C48.7262 188.987 48.5508 188.825 48.3184 188.697C48.0905 188.57 47.8102 188.506 47.4775 188.506C47.1266 188.506 46.8418 188.561 46.623 188.67C46.4089 188.775 46.2516 188.909 46.1514 189.073C46.0557 189.237 46.0078 189.41 46.0078 189.593C46.0078 189.729 46.0306 189.853 46.0762 189.962C46.1263 190.067 46.2129 190.165 46.3359 190.256C46.459 190.342 46.6322 190.424 46.8555 190.502C47.0788 190.579 47.3636 190.657 47.71 190.734C48.3161 190.871 48.8151 191.035 49.207 191.227C49.599 191.418 49.8906 191.653 50.082 191.931C50.2734 192.209 50.3691 192.546 50.3691 192.942C50.3691 193.266 50.3008 193.562 50.1641 193.831C50.0319 194.1 49.8382 194.332 49.583 194.528C49.3324 194.72 49.0316 194.87 48.6807 194.979C48.3343 195.084 47.9447 195.137 47.5117 195.137C46.86 195.137 46.3086 195.021 45.8574 194.788C45.4062 194.556 45.0645 194.255 44.832 193.886C44.5996 193.517 44.4834 193.127 44.4834 192.717H45.7549C45.7731 193.063 45.8734 193.339 46.0557 193.544C46.238 193.744 46.4613 193.888 46.7256 193.975C46.9899 194.057 47.252 194.098 47.5117 194.098C47.8581 194.098 48.1475 194.052 48.3799 193.961C48.6169 193.87 48.7969 193.744 48.9199 193.585C49.043 193.425 49.1045 193.243 49.1045 193.038ZM56.5869 193.038C56.5869 192.856 56.5459 192.687 56.4639 192.532C56.3864 192.373 56.2246 192.229 55.9785 192.102C55.737 191.969 55.3724 191.855 54.8848 191.76C54.4746 191.673 54.1032 191.571 53.7705 191.452C53.4424 191.334 53.1621 191.19 52.9297 191.021C52.7018 190.853 52.5264 190.655 52.4033 190.427C52.2803 190.199 52.2188 189.932 52.2188 189.627C52.2188 189.335 52.2826 189.06 52.4102 188.8C52.5423 188.54 52.7269 188.31 52.9639 188.109C53.2054 187.909 53.4948 187.752 53.832 187.638C54.1693 187.524 54.5452 187.467 54.96 187.467C55.5524 187.467 56.0583 187.572 56.4775 187.781C56.8968 187.991 57.2181 188.271 57.4414 188.622C57.6647 188.968 57.7764 189.354 57.7764 189.777H56.5117C56.5117 189.572 56.4502 189.374 56.3271 189.183C56.2087 188.987 56.0332 188.825 55.8008 188.697C55.5729 188.57 55.2926 188.506 54.96 188.506C54.609 188.506 54.3242 188.561 54.1055 188.67C53.8913 188.775 53.734 188.909 53.6338 189.073C53.5381 189.237 53.4902 189.41 53.4902 189.593C53.4902 189.729 53.513 189.853 53.5586 189.962C53.6087 190.067 53.6953 190.165 53.8184 190.256C53.9414 190.342 54.1146 190.424 54.3379 190.502C54.5612 190.579 54.846 190.657 55.1924 190.734C55.7985 190.871 56.2975 191.035 56.6895 191.227C57.0814 191.418 57.373 191.653 57.5645 191.931C57.7559 192.209 57.8516 192.546 57.8516 192.942C57.8516 193.266 57.7832 193.562 57.6465 193.831C57.5143 194.1 57.3206 194.332 57.0654 194.528C56.8148 194.72 56.514 194.87 56.1631 194.979C55.8167 195.084 55.4271 195.137 54.9941 195.137C54.3424 195.137 53.791 195.021 53.3398 194.788C52.8887 194.556 52.5469 194.255 52.3145 193.886C52.082 193.517 51.9658 193.127 51.9658 192.717H53.2373C53.2555 193.063 53.3558 193.339 53.5381 193.544C53.7204 193.744 53.9437 193.888 54.208 193.975C54.4723 194.057 54.7344 194.098 54.9941 194.098C55.3405 194.098 55.6299 194.052 55.8623 193.961C56.0993 193.87 56.2793 193.744 56.4023 193.585C56.5254 193.425 56.5869 193.243 56.5869 193.038ZM59.4277 191.384V191.227C59.4277 190.693 59.5052 190.199 59.6602 189.743C59.8151 189.283 60.0384 188.884 60.3301 188.547C60.6217 188.205 60.9749 187.941 61.3896 187.754C61.8044 187.562 62.2692 187.467 62.7842 187.467C63.3037 187.467 63.7708 187.562 64.1855 187.754C64.6048 187.941 64.9603 188.205 65.252 188.547C65.5482 188.884 65.7738 189.283 65.9287 189.743C66.0837 190.199 66.1611 190.693 66.1611 191.227V191.384C66.1611 191.917 66.0837 192.411 65.9287 192.867C65.7738 193.323 65.5482 193.722 65.252 194.063C64.9603 194.401 64.6071 194.665 64.1924 194.856C63.7822 195.043 63.3174 195.137 62.7979 195.137C62.2783 195.137 61.8112 195.043 61.3965 194.856C60.9818 194.665 60.6263 194.401 60.3301 194.063C60.0384 193.722 59.8151 193.323 59.6602 192.867C59.5052 192.411 59.4277 191.917 59.4277 191.384ZM60.6924 191.227V191.384C60.6924 191.753 60.7357 192.102 60.8223 192.43C60.9089 192.753 61.0387 193.04 61.2119 193.291C61.3896 193.542 61.6107 193.74 61.875 193.886C62.1393 194.027 62.4469 194.098 62.7979 194.098C63.1442 194.098 63.4473 194.027 63.707 193.886C63.9714 193.74 64.1901 193.542 64.3633 193.291C64.5365 193.04 64.6663 192.753 64.7529 192.43C64.8441 192.102 64.8896 191.753 64.8896 191.384V191.227C64.8896 190.862 64.8441 190.518 64.7529 190.194C64.6663 189.866 64.5342 189.577 64.3564 189.326C64.1833 189.071 63.9645 188.87 63.7002 188.725C63.4404 188.579 63.1351 188.506 62.7842 188.506C62.4378 188.506 62.1325 188.579 61.8682 188.725C61.6084 188.87 61.3896 189.071 61.2119 189.326C61.0387 189.577 60.9089 189.866 60.8223 190.194C60.7357 190.518 60.6924 190.862 60.6924 191.227ZM72.3584 193.735V189.928C72.3584 189.636 72.2992 189.383 72.1807 189.169C72.0667 188.95 71.8936 188.782 71.6611 188.663C71.4287 188.545 71.1416 188.485 70.7998 188.485C70.4808 188.485 70.2005 188.54 69.959 188.649C69.722 188.759 69.5352 188.902 69.3984 189.08C69.2663 189.258 69.2002 189.449 69.2002 189.654H67.9355C67.9355 189.39 68.0039 189.128 68.1406 188.868C68.2773 188.608 68.4733 188.374 68.7285 188.164C68.9883 187.95 69.2982 187.781 69.6582 187.658C70.0228 187.531 70.4284 187.467 70.875 187.467C71.4128 187.467 71.8867 187.558 72.2969 187.74C72.7116 187.923 73.0352 188.198 73.2676 188.567C73.5046 188.932 73.623 189.39 73.623 189.941V193.387C73.623 193.633 73.6436 193.895 73.6846 194.173C73.7301 194.451 73.7962 194.69 73.8828 194.891V195H72.5635C72.4997 194.854 72.4495 194.66 72.4131 194.419C72.3766 194.173 72.3584 193.945 72.3584 193.735ZM72.5771 190.516L72.5908 191.404H71.3125C70.9525 191.404 70.6312 191.434 70.3486 191.493C70.0661 191.548 69.8291 191.632 69.6377 191.746C69.4463 191.86 69.3005 192.004 69.2002 192.177C69.0999 192.345 69.0498 192.544 69.0498 192.771C69.0498 193.004 69.1022 193.216 69.207 193.407C69.3118 193.599 69.4691 193.751 69.6787 193.865C69.8929 193.975 70.1549 194.029 70.4648 194.029C70.8522 194.029 71.194 193.947 71.4902 193.783C71.7865 193.619 72.0212 193.419 72.1943 193.182C72.3721 192.945 72.4678 192.715 72.4814 192.491L73.0215 193.1C72.9896 193.291 72.903 193.503 72.7617 193.735C72.6204 193.968 72.4313 194.191 72.1943 194.405C71.9619 194.615 71.6839 194.79 71.3604 194.932C71.0413 195.068 70.6813 195.137 70.2803 195.137C69.779 195.137 69.3392 195.039 68.9609 194.843C68.5872 194.647 68.2956 194.385 68.0859 194.057C67.8809 193.724 67.7783 193.353 67.7783 192.942C67.7783 192.546 67.8558 192.197 68.0107 191.896C68.1657 191.591 68.389 191.338 68.6807 191.138C68.9723 190.933 69.3232 190.778 69.7334 190.673C70.1436 190.568 70.6016 190.516 71.1074 190.516H72.5771ZM80.1689 193.038C80.1689 192.856 80.1279 192.687 80.0459 192.532C79.9684 192.373 79.8066 192.229 79.5605 192.102C79.319 191.969 78.9544 191.855 78.4668 191.76C78.0566 191.673 77.6852 191.571 77.3525 191.452C77.0244 191.334 76.7441 191.19 76.5117 191.021C76.2839 190.853 76.1084 190.655 75.9854 190.427C75.8623 190.199 75.8008 189.932 75.8008 189.627C75.8008 189.335 75.8646 189.06 75.9922 188.8C76.1243 188.54 76.3089 188.31 76.5459 188.109C76.7874 187.909 77.0768 187.752 77.4141 187.638C77.7513 187.524 78.1273 187.467 78.542 187.467C79.1344 187.467 79.6403 187.572 80.0596 187.781C80.4788 187.991 80.8001 188.271 81.0234 188.622C81.2467 188.968 81.3584 189.354 81.3584 189.777H80.0938C80.0938 189.572 80.0322 189.374 79.9092 189.183C79.7907 188.987 79.6152 188.825 79.3828 188.697C79.1549 188.57 78.8747 188.506 78.542 188.506C78.1911 188.506 77.9062 188.561 77.6875 188.67C77.4733 188.775 77.3161 188.909 77.2158 189.073C77.1201 189.237 77.0723 189.41 77.0723 189.593C77.0723 189.729 77.0951 189.853 77.1406 189.962C77.1908 190.067 77.2773 190.165 77.4004 190.256C77.5234 190.342 77.6966 190.424 77.9199 190.502C78.1432 190.579 78.4281 190.657 78.7744 190.734C79.3805 190.871 79.8796 191.035 80.2715 191.227C80.6634 191.418 80.9551 191.653 81.1465 191.931C81.3379 192.209 81.4336 192.546 81.4336 192.942C81.4336 193.266 81.3652 193.562 81.2285 193.831C81.0964 194.1 80.9027 194.332 80.6475 194.528C80.3968 194.72 80.096 194.87 79.7451 194.979C79.3988 195.084 79.0091 195.137 78.5762 195.137C77.9245 195.137 77.373 195.021 76.9219 194.788C76.4707 194.556 76.1289 194.255 75.8965 193.886C75.6641 193.517 75.5479 193.127 75.5479 192.717H76.8193C76.8376 193.063 76.9378 193.339 77.1201 193.544C77.3024 193.744 77.5257 193.888 77.79 193.975C78.0544 194.057 78.3164 194.098 78.5762 194.098C78.9225 194.098 79.2119 194.052 79.4443 193.961C79.6813 193.87 79.8613 193.744 79.9844 193.585C80.1074 193.425 80.1689 193.243 80.1689 193.038Z" fill="#303133"/>
<defs>
<clipPath id="clip0_534_6747">
<rect width="46" height="46" fill="white" transform="translate(110 107)"/>
</clipPath>
</defs>
</svg>
